<svg version="1.2" xmlns="http://www.w3.org/2000/svg" viewBox="0 0 500 500" width="500" height="500">
	<title>Proyecto nuevo</title>
	<style>
		.s0 { fill: #66935e } 
		.s1 { fill: #d2a134 } 
		.s2 { fill: #edcbc5 } 
		.s3 { fill: #dfaba8 } 
		.s4 { fill: #c02434 } 
		.s5 { fill: #895440 } 
		.s6 { opacity: .2;fill: #0d0a23 } 
		.s7 { fill: #1a1b1b } 
		.s8 { fill: #ffffff } 
		.s9 { fill: none;stroke: #dfaba8;stroke-linecap: round;stroke-linejoin: round;stroke-width: 2.2 } 
		.s10 { fill: #ebb2ac } 
		.s11 { fill: none;stroke: #1a1b1b;stroke-linecap: round;stroke-linejoin: round;stroke-width: 2.3 } 
		.s12 { opacity: .1;fill: #531942 } 
		.s13 { opacity: .2;fill: #fdfcfc } 
	</style>
	<path id="&lt;Path&gt;" class="s0" d="m336.6 198.4q-0.9 3.1-1.5 6.2c-38.9-25.6-89.2-33.1-135.9-24.4 3.5-5.2 7.5-10.2 12-14.5 3-2.8 6.5-5.7 10.3-8.5 41.4-2.1 82.3 14.9 115.1 41.2z"/>
	<path id="&lt;Path&gt;" class="s0" d="m343.3 180c-8.1-16.1-19.6-30.5-32.2-44.1 12.8 2.7 25.8 8 38.7 16.9 0 0 5.9 6.4-0.4 15.9-2.3 3.6-4.3 7.4-6.1 11.3z"/>
	<path id="&lt;Path&gt;" class="s1" d="m343.3 180q-1.5 3.1-2.8 6.3c-13.1-20.7-29-40.4-49.8-52.5 6.7 0 13.5 0.7 20.4 2.1 12.6 13.6 24.1 28 32.2 44.1z"/>
	<path id="&lt;Path&gt;" class="s0" d="m340.5 186.3c-0.5 1.2-0.9 2.4-1.4 3.6-25.4-25.7-58.6-43.1-94.9-45.8 13.8-6.2 29.6-10.3 46.5-10.3 20.8 12.1 36.7 31.8 49.8 52.5z"/>
	<path id="&lt;Path&gt;" class="s1" d="m244.2 144.1c36.3 2.7 69.5 20.1 94.9 45.8q-1.4 4.2-2.5 8.5c-32.8-26.3-73.7-43.3-115.1-41.2 6.6-4.8 14.3-9.3 22.7-13.1z"/>
	<path id="&lt;Path&gt;" class="s1" d="m335.1 204.6c-0.5 2.9-1 5.9-1.3 8.8-43.3-25.5-99.8-31.1-145.6-12.8 2.9-6.8 6.6-13.8 11-20.4 46.7-8.7 97-1.2 135.9 24.4z"/>
	<path id="&lt;Path&gt;" class="s0" d="m336.4 242c7 22.8-159.3-5.5-159.3-5.5 0 0 3-17 11.1-35.9 45.8-18.3 102.3-12.7 145.6 12.8-0.9 9.9-0.1 19.7 2.6 28.6z"/>
	<path id="&lt;Path&gt;" class="s2" d="m334.4 244.8q-0.6-1.6-1.3-3.3 1.1 0.5 1.1 0.5c0 0 0.1 1 0.2 2.8z"/>
	<path id="&lt;Path&gt;" class="s3" d="m180 270.9c0 0-14.9-2.6-24.3-20-9.4-17.4-13.2-37.8-3.1-43.8 10.1-6.1 11.2 27.6 33 27.2z"/>
	<path id="&lt;Path&gt;" class="s2" d="m188.9 264.2c0 0-11 1-21-9.5-9.9-10.6-16.4-24.4-10.4-30.5 6-6.2 13.1 17.4 28.5 13z"/>
	<path id="&lt;Path&gt;" class="s3" d="m327.5 256.5c20.7 7.2 32.2-24.4 39.9-15.6 7.7 8.9-2.2 27.2-16.6 40.8-14.4 13.5-29.4 11.3-29.4 11.3z"/>
	<path id="&lt;Path&gt;" class="s2" d="m326.3 259.2c13.2 9 27.3-11.2 31.1-3.5 3.8 7.7-6.7 18.8-19.4 25.7-12.8 6.9-23 2.5-23 2.5z"/>
	<path id="&lt;Path&gt;" class="s4" d="m266 214.3c-0.6-2.7-1.3-4.4-1.3-4.4 0 0 0.4 1.8 1.3 4.4z"/>
	<path id="&lt;Path&gt;" class="s4" d="m306.9 212.6c0 0 0.6 7.5 2.7 16.5 1.9-7.5-2.7-16.5-2.7-16.5z"/>
	<path id="&lt;Path&gt;" class="s5" d="m191 337.9c-42.1 48-86.8-8.8-86.8-8.8 0 0 22.2-5.6 29.8-29.7 7.6-13.4 17.3-17.8 25.3-18.7 1.8 23.6 13.9 44.1 31.7 57.2z"/>
	<path id="&lt;Path&gt;" class="s0" d="m193.4 334.9q-1.2 1.6-2.4 3c-17.8-13.1-29.9-33.6-31.7-57.2 8.7-0.9 15.5 2.1 15.5 2.1 0 0 31 20.3 18.6 52.1z"/>
	<path id="&lt;Path&gt;" class="s5" d="m338 295.8c7.9 1.4 17.3 6.4 23.9 20.4 6 24.5 27.7 31.6 27.7 31.6 0 0-48.5 53.6-87.1 2.8 18.6-11.8 32-31.4 35.5-54.8z"/>
	<path id="&lt;Path&gt;" class="s0" d="m322.4 296.8c0 0 6.9-2.6 15.6-1-3.5 23.4-16.9 43-35.5 54.8q-1.2-1.5-2.3-3.1c-10.2-32.6 22.2-50.7 22.2-50.7z"/>
	<path id="&lt;Path&gt;" class="s5" d="m338.3 245.1c0.1 3 0.1 8.2-0.4 14.6-0.3 4-0.8 8.5-1.6 13.4-0.5 3.2-8.2 41.1-9.8 46.7-6.9 24.5-36.8 28.1-88.3 22.7-90.2-9.4-66.9-75.1-66.9-75.1 0 0 11-35.7 19.6-38.4q3.7-1.1 7.4-2c22.3-5.4 45.8-5.3 67.1-2.8q2.3 0.3 4.6 0.6 2.4 0.3 4.8 0.7 3.3 0.5 6.5 1c10.7 1.9 20.5 4.2 28.8 6.5q1.5 0.4 2.9 0.8c12.3 3.6 21 6.8 24.1 8q0.6 1.7 1.2 3.3z"/>
	<path id="&lt;Path&gt;" class="s6" d="m338.3 245.1c0.1 3 0.1 8.2-0.4 14.6-0.3 4-0.8 8.5-1.6 13.4-0.5 3.2-8.2 41.1-9.8 46.7-6.9 24.5-36.8 28.1-88.3 22.7-90.2-9.4-66.9-75.1-66.9-75.1 0 0 11-35.7 19.6-38.4q3.7-1.1 7.4-2c22.3-5.4 45.8-5.3 67.1-2.8q2.3 0.3 4.6 0.6 2.4 0.3 4.8 0.7 3.3 0.5 6.5 1c10.7 1.9 20.5 4.2 28.8 6.5q1.5 0.4 2.9 0.8c12.3 3.6 21 6.8 24.1 8q0.6 1.7 1.2 3.3z"/>
	<path id="&lt;Path&gt;" class="s5" d="m173.4 261l1.4-15.8-0.4-7.4c7.3-4.4 14.9-7.7 22.9-10.2q3.4-1 6.8-1.9c20.7-5 42.5-4.7 62.3-2q2.2 0.3 4.3 0.6 2.2 0.3 4.4 0.7c-13.7 8.5-59.2 34.4-101.7 36z"/>
	<path id="&lt;Path&gt;" class="s5" d="m334.4 244.8c0.1 2.9 0.1 7.9-0.3 14.2-0.2 3.9-0.7 8.2-1.3 12.9-0.5 3.2-1.3 7.9-2.7 13.3-9.7-8.3-34-30.8-48.9-59.1 10 2 19 4.3 26.8 6.6q1.4 0.4 2.7 0.8c11.5 3.6 19.6 6.9 22.4 8q0.7 1.7 1.3 3.3z"/>
	<path id="&lt;Path&gt;" class="s2" d="m281.2 226.1c14.9 28.3 39.2 50.8 48.9 59.1-6.2 23.8-23.7 62.5-71.7 59.8-83.4-4.8-86.6-66.3-86.6-66.3l1.6-17.7c42.5-1.6 88-27.5 101.7-36q3.1 0.5 6.1 1.1z"/>
	<path id="&lt;Path&gt;" class="s7" d="m259.4 300.9c-1.3 0.3-2.7 0.2-4-0.3-1.6-0.7-3-1.9-3.7-3.6-0.1-0.4 0-0.8 0.4-1 0.4-0.2 0.8 0 1 0.4 0.6 1.3 1.6 2.3 2.9 2.8 1.3 0.5 2.7 0.5 4-0.1 1.3-0.5 2.3-1.5 2.8-2.8 0.5-1.3 0.5-2.8 0-4-0.2-0.4 0-0.9 0.4-1 0.3-0.2 0.8 0 1 0.4 0.7 1.6 0.7 3.5 0 5.1-0.7 1.7-1.9 3-3.6 3.7q-0.6 0.3-1.2 0.4z"/>
	<path id="&lt;Path&gt;" class="s8" d="m382.7 171.4c0 0 4.7 5-0.1 11.3-4.9 6.3-12.9-4.1-12.9-4.1 0 0 5.7 7.2-2 10.6-5.3 2.3-9.5-3.3-11.6-7.2q-0.4 0.2-0.8 0.4-0.1 0-0.1 0.1c-0.5 1.2-1.9 2-5.5 1.4-3.4-0.5-4.4-3.1-4.3-6.1 0-4.3 2.3-9.4 2.3-9.4 0 0-6.8 4.1-9.7 0.4-3-3.8 3.5-11.5 3-12 0 0-4 4.3-6.6-1.9-2.5-6.3 9-10.6 9-10.6 0 0-3.5-7.5 0.2-11.7 3.7-4.1 12.3 3.4 12.3 3.4 0 0 0.4-3.1 2.7-5.4 1.2-1.3 3.1-2.3 5.7-2.4 1.6 0 2.8 0.4 3.8 1.1q0.6 0.2 1.3 0.4c4.1 1.4 5 4 4.9 6.2 1.7-0.5 4.1-0.5 7.4 0.6 8.4 2.8 3.7 10.4 3.7 10.4 0 0 4.1-0.4 6.8 5.1 2.6 5.5-3.1 5-3.1 5 0 0 8.4 8.1 6 13.8-2.4 5.6-12.4 0.6-12.4 0.6z"/>
	<path id="&lt;Path&gt;" class="s8" d="m342.2 172c0 0 0.1 0.4 0.4 0.9-0.2-0.5-0.4-0.9-0.4-0.9z"/>
	<path id="&lt;Path&gt;" class="s8" d="m174.8 241.5c0 0-2.9-17 2.6-24.8 5.6-7.9 99-40.9 160 10.6 0 0 3.7 12.3 1.2 23.2-2.6 10.8-83.6-50-163.8-9z"/>
	<path id="&lt;Path&gt;" class="s2" d="m257.9 282.2c0 0-13.5 6.6-15.1-4.2-1.7-10.8 12.6-5 12.6-5"/>
	<path id="&lt;Path&gt;" class="s9" d="m257.9 282.2c0 0-13.5 6.6-15.1-4.2-1.7-10.8 12.6-5 12.6-5"/>
	<path id="&lt;Path&gt;" class="s10" d="m313.2 294.1c1 5.8-8 12.2-20 14.3-12.1 2.1-22.7-0.9-23.7-6.6-1-5.8 8-12.1 20-14.3 12.1-2.1 22.7 0.9 23.7 6.6z"/>
	<path id="&lt;Path&gt;" class="s10" d="m233.1 296.8c-1.6 5.7-11.2 7.9-21.4 5-10.2-2.8-17.2-9.7-15.7-15.3 1.6-5.6 11.2-7.9 21.4-5 10.2 2.8 17.2 9.7 15.7 15.3z"/>
	<path id="&lt;Path&gt;" class="s5" d="m277.4 249.1c0 0 17.8 6.9 26.5 22.7"/>
	<path id="&lt;Path&gt;" class="s5" d="m204 260.4c0 0 14.4-12.5 32.3-13.1"/>
	<path id="&lt;Path&gt;" class="s7" d="m227.6 272.3c-1.6 3-5.4 4-8.5 2.4-3.1-1.7-4.3-5.4-2.7-8.3 1.6-3 5.3-4 8.4-2.4 3.1 1.7 4.3 5.4 2.8 8.3z"/>
	<path id="&lt;Path&gt;" class="s11" d="m220.2 268.8l-5.7-4.1"/>
	<path id="&lt;Path&gt;" class="s7" d="m289.3 278.1c-1.6 2.9-5.4 4-8.5 2.3-3-1.6-4.3-5.4-2.7-8.3 1.6-3 5.4-4 8.4-2.4 3.1 1.7 4.4 5.4 2.8 8.4z"/>
	<path id="&lt;Path&gt;" class="s11" d="m291.9 271.8l-6.6 2.2"/>
	<path id="&lt;Path&gt;" class="s12" d="m339.2 237.1c0.4 4.1 0.4 8.8-0.6 13.4-2.6 10.8-83.6-50-163.8-9 0 0-0.5-3.2-0.7-7.4 17.2-9.1 47.2-20.9 79.4-14.8 39.2 7.5 71.9 26.2 85.7 17.8z"/>
	<path id="&lt;Path&gt;" class="s13" d="m238.5 153.7c17.7-11.7 25.4 2 13.5 6.9-12.3 5.1-38.5 36.2-38.5 36.2-14.9-1.1 14.4-36 25-43.1z"/>
</svg>