<svg version="1.2" xmlns="http://www.w3.org/2000/svg" viewBox="0 0 500 500" width="500" height="500">
	<title>Proyecto nuevo</title>
	<style>
		.s0 { fill: #d2a134 } 
		.s1 { fill: #66935e } 
		.s2 { fill: #edcbc5 } 
		.s3 { fill: #dfaba8 } 
		.s4 { fill: #c02434 } 
		.s5 { fill: #9a533c } 
		.s6 { fill: #1a1b1b } 
		.s7 { fill: #ffffff } 
		.s8 { opacity: .1;fill: #531942 } 
		.s9 { fill: none;stroke: #dfaba8;stroke-linecap: round;stroke-linejoin: round;stroke-width: 2.3 } 
		.s10 { fill: #ebb2ac } 
		.s11 { opacity: .2;fill: #fdfcfc } 
	</style>
	<path id="&lt;Path&gt;" class="s0" d="m314.2 204.3c0.4 2.8 0.9 5.6 1.5 8.3-50.2-6.7-104.4 7.2-145.1 37 0.5-5.5 1.3-11.1 2.5-16.7 39.9-24.8 93.4-36.8 141.1-28.6z"/>
	<path id="&lt;Path&gt;" class="s0" d="m245.6 152.7c24.5 2.4 47.6 11 68.1 24.2q-0.5 4.1-0.6 8.2c-28.9-15.2-63.3-21.7-96-16.8 8.4-6.3 17.9-11.7 28.5-15.6z"/>
	<path id="&lt;Path&gt;" class="s1" d="m315.6 165.6c-0.9 3.7-1.5 7.5-1.9 11.3-20.5-13.2-43.6-21.8-68.1-24.2 18.5-6.9 40.2-9 64.7-2.7 0 0 7.9 4.2 5.3 15.6z"/>
	<path id="&lt;Path&gt;" class="s1" d="m313.1 185.1q-0.1 2.9-0.1 5.9c-37.1-13.1-80.8-8-120.3 1.3 6.6-8.4 14.8-16.7 24.4-24 32.7-4.9 67.1 1.6 96 16.8z"/>
	<path id="&lt;Path&gt;" class="s0" d="m313 191q0.1 3.6 0.5 7.3c-42.3-12.4-88.8-6.8-130.7 8.8 2.7-4.8 6-9.8 9.9-14.8 39.5-9.3 83.2-14.4 120.3-1.3z"/>
	<path id="&lt;Path&gt;" class="s1" d="m313.5 198.3q0.2 3 0.7 6c-47.7-8.2-101.2 3.8-141.1 28.6 1.6-7.4 3.9-14.7 7.3-21.4q1.1-2.2 2.4-4.4c41.9-15.6 88.4-21.2 130.7-8.8z"/>
	<path id="&lt;Path&gt;" class="s1" d="m328.8 241.3c14.9 19.7-156.5 51-156.5 51 0 0-3.6-19.8-1.7-42.7 40.7-29.8 94.9-43.7 145.1-37 2.6 10.7 6.9 20.6 13.1 28.7z"/>
	<path id="&lt;Path&gt;" class="s2" d="m329.9 244q-1.1-1.3-2.3-2.7 1.2 0 1.2 0c0 0 0.4 1 1.1 2.7z"/>
	<path id="&lt;Path&gt;" class="s3" d="m186.9 323.2c0 0-15.2 3.6-31.2-9.1-16-12.7-27.8-30.6-20.7-40.4 7.2-9.8 21.8 21.7 42.4 12.5z"/>
	<path id="&lt;Path&gt;" class="s2" d="m192.7 313.3c0 0-10.1 5.4-23.8-0.6-13.8-6-25.5-16.4-22.3-24.7 3.2-8.3 19.5 11.2 32.4 0.8z"/>
	<path id="&lt;Path&gt;" class="s3" d="m326.2 250.2c22.6-0.3 22.6-35 33.2-29.1 10.6 5.8 7.4 27.1-1.7 45.3-9.2 18.3-24.5 21.4-24.5 21.4z"/>
	<path id="&lt;Path&gt;" class="s2" d="m325.9 253.3c16.1 4 22.6-20.6 29-14.4 6.5 6.2 0.2 20.6-9.7 31.8-10 11.2-21.4 10.5-21.4 10.5z"/>
	<path id="&lt;Path&gt;" class="s2" d="m334.4 258q0.2 0 0.3-0.1c1.1 3.8 2.3 8.2 3.3 13 3.6 17.4 12.4 85.7-46.1 103.3-82.6 24.9-107.7-39.8-107.7-39.8l-9-33.6c2.8-0.3 7.8-5.1 15.6-25q3-2.2 6-4.3c9.7 3.3 35.5 10.2 51-2.8 8.7-7.4 9.9-15 8.7-21.2q2.2-0.5 4.4-0.9c7.4 6.1 18 11.1 29.4 5.4 6.1-3 8.9-6.7 9.8-10.4q1.5-0.1 2.9-0.2c8.1 11.4 19.7 22.6 31.4 16.6z"/>
	<path id="&lt;Path&gt;" class="s4" d="m252.8 238.6c-1.5-2.4-2.8-3.8-2.8-3.8 0 0 1 1.5 2.8 3.8z"/>
	<path id="&lt;Path&gt;" class="s4" d="m291.9 222.4c0 0 3.2 7.2 8.4 15.2-0.8-8-8.4-15.2-8.4-15.2z"/>
	<path id="&lt;Path&gt;" class="s5" d="m329.9 244c1.1 2.8 2.9 7.6 4.8 13.9 3.2-2 0.3-7.6-4.8-13.9z"/>
	<path id="&lt;Path&gt;" class="s5" d="m260.9 246.6c14.4-2.9 28-4.3 39.2-5-0.9 3.7-3.7 7.4-9.8 10.4-11.4 5.7-22 0.7-29.4-5.4z"/>
	<path id="&lt;Path&gt;" class="s5" d="m329.9 244c1.1 2.8 2.9 7.6 4.8 13.9q-0.1 0.1-0.3 0.1c-11.7 6-23.3-5.2-31.4-16.6 12.4-0.6 21.4-0.3 24.6-0.1q1.2 1.4 2.3 2.7z"/>
	<path id="&lt;Path&gt;" class="s5" d="m256.5 247.5c1.2 6.2 0 13.8-8.7 21.2-15.5 13-41.3 6.1-51 2.8 18.2-12.2 39.6-19.6 59.7-24z"/>
	<path id="&lt;Path&gt;" class="s5" d="m175.2 300.8l-3-7c5.5-6.9 11.8-12.8 18.6-18-7.8 19.9-12.8 24.7-15.6 25z"/>
	<path id="&lt;Path&gt;" class="s5" d="m192.1 317c0 0 4-23.7 10.7-28.9 6.7-5.1 5.6 1.4 5.6 1.4 0 0 4.8-8.3 10.1-3.4 2.1 3.1-1.1 6.3-1.1 6.3 0 0 4.4-1.9 3.7 4.5-0.6 6.5-21.4 9.5-29 20.1z"/>
	<path id="&lt;Path&gt;" class="s5" d="m271.8 282.3c-4.2-4.9 0.5-5.8 0.5-5.8 0 0-4.5-0.9-4.5-4.6 1.6-7 10.2-3 10.2-3 0 0-4.6-4.7 3.8-4.3 8.5 0.4 25.3 17.5 25.3 17.5-12.3-4.3-31.1 5.1-35.3 0.2z"/>
	<path id="&lt;Path&gt;" class="s6" d="m227.8 316.2c0 3.3-2.9 5.9-6.3 5.8-3.4 0-6.2-2.7-6.1-6 0-3.3 2.9-6 6.3-5.9 3.5 0.1 6.2 2.8 6.1 6.1z"/>
	<path id="&lt;Path&gt;" class="s6" d="m287.4 299.3c0 3.3-2.9 5.9-6.3 5.9-3.4-0.1-6.2-2.8-6.1-6.1 0-3.3 2.9-5.9 6.3-5.8 3.5 0 6.2 2.7 6.1 6z"/>
	<path id="&lt;Path&gt;" class="s6" d="m265.7 335.8c-1.2 0.8-2.5 1.2-4 1.1-1.8 0-3.6-0.8-4.9-2.2-0.2-0.3-0.2-0.8 0.1-1.1 0.3-0.3 0.8-0.3 1.1 0.1 1 1 2.3 1.6 3.8 1.7 1.4 0 2.8-0.5 3.8-1.5 1.1-1 1.7-2.4 1.7-3.8 0.1-1.4-0.4-2.8-1.4-3.9-0.3-0.3-0.3-0.8 0-1.1 0.3-0.3 0.8-0.3 1.1 0.1 1.3 1.3 2 3.1 1.9 5 0 1.8-0.8 3.5-2.2 4.8q-0.5 0.5-1 0.8z"/>
	<path id="&lt;Path&gt;" class="s7" d="m350.9 155.7c0 0 6.4 3.2 3.9 11-2.5 7.8-13.9 0.6-13.9 0.6 0 0 8 5 1.7 11-4.3 4.1-10.3 0.1-13.8-2.9q-0.3 0.3-0.6 0.7-0.1 0-0.1 0.1c0 1.3-1.1 2.6-4.8 3.3-3.5 0.7-5.4-1.5-6.4-4.4-1.5-4.2-1-9.9-1-9.9 0 0-5.2 6.3-9.3 3.7-4.2-2.6-0.7-12.3-1.3-12.6 0 0-2.4 5.6-7.1 0.4-4.6-5.2 5-13.5 5-13.5 0 0-6.1-6-3.9-11.3 2.1-5.4 13.1-1.1 13.1-1.1 0 0-0.7-3.2 0.7-6.2 0.7-1.7 2.2-3.3 4.7-4.3 1.5-0.6 2.9-0.6 4-0.3q0.7 0 1.4-0.1c4.5-0.1 6.3 2.1 7 4.3 1.5-1 3.8-1.9 7.4-2 9.1-0.3 7.2 8.8 7.2 8.8 0 0 3.9-1.9 8.5 2.5 4.5 4.4-1.3 6-1.3 6 0 0 11 4.9 10.7 11.2-0.3 6.3-11.8 5-11.8 5z"/>
	<path id="&lt;Path&gt;" class="s7" d="m311.8 170.6c0 0 0.3 0.3 0.7 0.8-0.4-0.5-0.7-0.8-0.7-0.8z"/>
	<path id="&lt;Path&gt;" class="s7" d="m172.9 295.3c0 0-8.3-14.4-5.6-23.5 2.8-9.1 80.4-72.1 154.7-46.8 0 0 7.5 9.9 8.6 20.7 1.1 10.8-95.1-16-157.7 49.6z"/>
	<path id="&lt;Path&gt;" class="s8" d="m325.4 230.5c2.1 3.8 4.6 9.4 5.2 15.2 1.1 10.8-95.1-16-157.7 49.6 0 0-1.5-2.7-3.1-6.4 40.7-34.5 92.5-55 147.8-56.8 3 0 5.6-0.6 7.8-1.6z"/>
	<path id="&lt;Path&gt;" class="s2" d="m262.1 317.4c0 0-10.8 11.2-16.2 1.3-5.4-9.9 10.4-9.3 10.4-9.3"/>
	<path id="&lt;Path&gt;" class="s9" d="m262.1 317.4c0 0-10.8 11.2-16.2 1.3-5.4-9.9 10.4-9.3 10.4-9.3"/>
	<path id="&lt;Path&gt;" class="s10" d="m314.5 302.3c2.8 5.2-3.6 14.1-14.4 19.9-10.7 5.8-21.7 6.4-24.5 1.3-2.8-5.1 3.7-14 14.4-19.9 10.8-5.8 21.8-6.4 24.5-1.3z"/>
	<path id="&lt;Path&gt;" class="s10" d="m238.2 334.9c0.3 5.9-8.1 11-18.7 11.6-10.6 0.5-19.4-3.7-19.7-9.6-0.3-5.8 8-11 18.6-11.5 10.6-0.6 19.4 3.7 19.8 9.5z"/>
	<path id="&lt;Path&gt;" class="s11" d="m203 192.2c14.8-15.3 25.1-3.6 14.6 3.7-10.9 7.7-29.7 43.7-29.7 43.7-14.8 2.2 6.2-38.2 15.1-47.4z"/>
	<path id="&lt;Path&gt;" class="s0" d="m314.2 204.3c0.4 2.8 0.9 5.6 1.5 8.3-50.2-6.7-104.4 7.2-145.1 37 0.5-5.5 1.3-11.1 2.5-16.7 39.9-24.8 93.4-36.8 141.1-28.6z"/>
</svg>