<svg version="1.2" xmlns="http://www.w3.org/2000/svg" viewBox="0 0 500 500" width="500" height="500">
	<title>Proyecto nuevo</title>
	<style>
		.s0 { fill: #80aaaa } 
		.s1 { opacity: .1;fill: #531942 } 
		.s2 { fill: #fcf6f2 } 
		.s3 { fill: #c02434 } 
		.s4 { fill: #c6384d } 
		.s5 { opacity: .3;fill: #531942 } 
		.s6 { opacity: .1;fill: #fdfcfc } 
		.s7 { fill: #d2a134 } 
		.s8 { opacity: .1;fill: #1b1631 } 
		.s9 { fill: #1a1b1b } 
		.s10 { fill: #fdfcfc } 
	</style>
	<path id="&lt;Path&gt;" class="s0" d="m195.1 198c0 0 8.1 3.8 5.1 13.6-2.9 9.7-17.2 1-17.2 1 0 0 10.1 6 2.4 13.6-5.2 5.2-12.8 0.3-17.1-3.3q-0.4 0.4-0.8 0.9-0.1 0-0.2 0.1c0.1 1.6-1.2 3.3-5.8 4.2-4.3 0.9-6.7-1.8-8-5.3-1.9-5.2-1.5-12.3-1.5-12.3 0 0-6.3 8-11.5 4.9-5.2-3.1-1-15.3-1.8-15.7 0 0-2.9 7-8.8 0.7-5.9-6.4 5.8-16.8 5.8-16.8 0 0-7.6-7.3-5-14 2.5-6.7 16.2-1.6 16.2-1.6 0 0-1-4 0.7-7.8 0.9-2 2.6-4.1 5.7-5.4 2-0.8 3.6-0.8 5.1-0.4q0.8-0.1 1.7-0.1c5.6-0.3 7.9 2.4 8.8 5.1 1.7-1.3 4.6-2.5 9.1-2.7 11.3-0.5 9.1 10.8 9.1 10.8 0 0 4.8-2.5 10.5 2.9 5.7 5.4-1.4 7.5-1.4 7.5 0 0 13.8 5.8 13.5 13.6-0.2 7.9-14.6 6.5-14.6 6.5z"/>
	<path id="&lt;Path&gt;" class="s1" d="m195.1 198c0 0 8.1 3.8 5.1 13.6-2.9 9.7-17.2 1-17.2 1 0 0 10.1 6 2.4 13.6-5.2 5.2-12.8 0.3-17.1-3.3q-0.4 0.4-0.8 0.9-0.1 0-0.2 0.1c0.1 1.6-1.2 3.3-5.8 4.2-4.3 0.9-6.7-1.8-8-5.3-1.9-5.2-1.5-12.3-1.5-12.3 0 0-6.3 8-11.5 4.9-5.2-3.1-1-15.3-1.8-15.7 0 0-2.9 7-8.8 0.7-5.9-6.4 5.8-16.8 5.8-16.8 0 0-7.6-7.3-5-14 2.5-6.7 16.2-1.6 16.2-1.6 0 0-1-4 0.7-7.8 0.9-2 2.6-4.1 5.7-5.4 2-0.8 3.6-0.8 5.1-0.4q0.8-0.1 1.7-0.1c5.6-0.3 7.9 2.4 8.8 5.1 1.7-1.3 4.6-2.5 9.1-2.7 11.3-0.5 9.1 10.8 9.1 10.8 0 0 4.8-2.5 10.5 2.9 5.7 5.4-1.4 7.5-1.4 7.5 0 0 13.8 5.8 13.5 13.6-0.2 7.9-14.6 6.5-14.6 6.5z"/>
	<path id="&lt;Path&gt;" class="s2" d="m339.6 229.3c-8.7 51.6-57.6 86.3-109.1 77.5-51.5-8.7-86.3-57.5-77.5-109.1 8.7-51.5 57.6-86.2 109.1-77.5 51.5 8.7 86.2 57.6 77.5 109.1z"/>
	<path id="&lt;Path&gt;" class="s3" d="m158.6 250c2.8 2.4 72.6 54.5 164.9 19.6 0 0 12.3 21.5-1.3 44.5-13.7 22.9-160.4 15.3-170.4-31.9-2-22.9 6.8-32.2 6.8-32.2z"/>
	<path id="&lt;Path&gt;" class="s4" d="m164.3 260.8c1.3 0.1 2.4 0.4 1.8 1.4-0.5 0.9-1.7 0.5-2.7-0.1-1-0.6-1.9-1.5-1.9-1.5 0 0 1.5 0 2.8 0.2z"/>
	<path id="&lt;Path&gt;" class="s4" d="m162.8 262.6c0.8 1.1 1.3 2.2 0.2 2.4-1 0.2-1.6-0.9-1.8-2.1-0.3-1.2-0.2-2.4-0.2-2.4 0 0 1 1.1 1.8 2.1z"/>
	<path id="&lt;Path&gt;" class="s4" d="m161.2 258c1.3 0.1 2.4 0.5 1.9 1.4-0.6 0.9-1.7 0.5-2.8-0.1-1-0.6-1.8-1.4-1.8-1.4 0 0 1.5-0.1 2.7 0.1z"/>
	<path id="&lt;Path&gt;" class="s4" d="m159.7 259.8c0.8 1.1 1.4 2.2 0.3 2.4-1.1 0.2-1.6-0.9-1.9-2.1-0.2-1.1-0.1-2.4-0.1-2.4 0 0 1 1.1 1.7 2.1z"/>
	<path id="&lt;Path&gt;" class="s4" d="m158.3 255.5c1.3 0.2 2.4 0.5 1.8 1.4-0.5 1-1.7 0.6-2.7 0-1-0.6-1.9-1.5-1.9-1.5 0 0 1.5 0 2.8 0.1z"/>
	<path id="&lt;Path&gt;" class="s4" d="m156.8 257.4c0.8 1.1 1.3 2.2 0.2 2.4-1 0.2-1.6-0.9-1.8-2.1-0.3-1.2-0.2-2.4-0.2-2.4 0 0 1 1.1 1.8 2.1z"/>
	<path id="&lt;Path&gt;" class="s4" d="m168.2 263.8c1.3 0.1 2.4 0.4 1.9 1.3-1 1.9-4.6-1.3-4.6-1.3 0 0 1.4-0.1 2.7 0z"/>
	<path id="&lt;Path&gt;" class="s4" d="m166.8 265.7c0.8 1 1.4 2.1 0.4 2.4-1.1 0.2-1.7-0.9-2-2-0.3-1.2-0.3-2.4-0.3-2.4 0 0 1.1 1 1.9 2z"/>
	<path id="&lt;Path&gt;" class="s4" d="m172.3 266.7c1.3 0 2.4 0.3 1.9 1.3-1 1.9-4.7-1.2-4.7-1.2 0 0 1.5-0.2 2.8-0.1z"/>
	<path id="&lt;Path&gt;" class="s4" d="m169 266.7c0 0 0.2 4.8 2.4 4.3 2-0.6-2.4-4.3-2.4-4.3z"/>
	<path id="&lt;Path&gt;" class="s4" d="m176.4 269.4c1.3 0 2.5 0.3 2 1.3-0.9 1.9-4.7-1.1-4.7-1.1 0 0 1.4-0.2 2.7-0.2z"/>
	<path id="&lt;Path&gt;" class="s4" d="m175.7 273.8c-1.1 0.3-1.7-0.8-2.1-1.9-0.4-1.1-0.4-2.3-0.4-2.3 0 0 4.5 3.5 2.5 4.2z"/>
	<path id="&lt;Path&gt;" class="s4" d="m180.7 272.1c1.3-0.1 2.5 0.1 2 1.1-0.4 1-1.6 0.8-2.7 0.3-1.1-0.4-2-1.2-2-1.2 0 0 1.4-0.2 2.7-0.2z"/>
	<path id="&lt;Path&gt;" class="s4" d="m179.5 274.1c0.9 0.9 1.6 2 0.6 2.3-1.1 0.4-1.8-0.6-2.2-1.8-0.4-1.1-0.5-2.3-0.5-2.3 0 0 1.2 0.9 2.1 1.8z"/>
	<path id="&lt;Path&gt;" class="s4" d="m185 274.6c1.3-0.1 2.5 0 2.1 1-0.4 1-1.6 0.9-2.7 0.5-1.1-0.5-2.1-1.2-2.1-1.2 0 0 1.4-0.3 2.7-0.3z"/>
	<path id="&lt;Path&gt;" class="s4" d="m183.9 276.7c0.9 0.9 1.7 1.8 0.6 2.2-1 0.5-1.7-0.6-2.1-1.7-0.5-1.1-0.6-2.3-0.6-2.3 0 0 1.2 0.8 2.1 1.8z"/>
	<path id="&lt;Path&gt;" class="s4" d="m189.4 276.9c1.3-0.1 2.5 0 2.1 1.1-0.7 2-4.8-0.6-4.8-0.6 0 0 1.4-0.4 2.7-0.5z"/>
	<path id="&lt;Path&gt;" class="s4" d="m186.2 277.4c0 0 0.8 4.7 2.9 3.9 2-0.8-2.9-3.9-2.9-3.9z"/>
	<path id="&lt;Path&gt;" class="s4" d="m193.9 279.1c1.3-0.1 2.5-0.1 2.2 1-0.7 2-4.9-0.4-4.9-0.4 0 0 1.4-0.4 2.7-0.6z"/>
	<path id="&lt;Path&gt;" class="s4" d="m192.9 281.3c1 0.8 1.8 1.8 0.8 2.2-1 0.5-1.8-0.5-2.3-1.5-0.5-1.1-0.7-2.3-0.7-2.3 0 0 1.2 0.8 2.2 1.6z"/>
	<path id="&lt;Path&gt;" class="s4" d="m198.4 281.2c1.3-0.1 2.5-0.1 2.2 0.9-0.3 1-1.5 1-2.6 0.7-1.2-0.4-2.2-1-2.2-1 0 0 1.4-0.4 2.6-0.6z"/>
	<path id="&lt;Path&gt;" class="s4" d="m197.5 283.4c1 0.9 1.9 1.7 0.9 2.2-1 0.6-1.8-0.4-2.4-1.5-0.5-1.1-0.8-2.3-0.8-2.3 0 0 1.3 0.8 2.3 1.6z"/>
	<path id="&lt;Path&gt;" class="s4" d="m203.1 283.1c1.2-0.2 2.4-0.2 2.2 0.8-0.6 2.1-4.9-0.1-4.9-0.1 0 0 1.4-0.5 2.7-0.7z"/>
	<path id="&lt;Path&gt;" class="s4" d="m199.9 283.9c0 0 1.3 4.6 3.2 3.6 1.9-1-3.2-3.6-3.2-3.6z"/>
	<path id="&lt;Path&gt;" class="s4" d="m207.7 284.9c1.3-0.3 2.5-0.3 2.3 0.7-0.3 1.1-1.5 1.1-2.7 0.9-1.1-0.2-2.2-0.8-2.2-0.8 0 0 1.4-0.5 2.6-0.8z"/>
	<path id="&lt;Path&gt;" class="s4" d="m206.9 287.2c1.1 0.7 2 1.6 1.1 2.1-1 0.5-1.9-0.3-2.5-1.3-0.6-1.1-0.9-2.2-0.9-2.2 0 0 1.3 0.6 2.3 1.4z"/>
	<path id="&lt;Path&gt;" class="s4" d="m212.5 286.5c1.2-0.3 2.4-0.4 2.2 0.7-0.4 2.1-4.8 0.2-4.8 0.2 0 0 1.3-0.6 2.6-0.9z"/>
	<path id="&lt;Path&gt;" class="s4" d="m212.8 290.9c-0.9 0.6-1.8-0.3-2.4-1.3-0.7-1-1.1-2.1-1.1-2.1 0 0 5.4 2.3 3.5 3.4z"/>
	<path id="&lt;Path&gt;" class="s4" d="m217.2 287.9c1.3-0.4 2.5-0.5 2.3 0.6-0.2 1-1.4 1.2-2.5 1-0.6 0-1.2-0.2-1.6-0.3-0.5-0.1-0.7-0.3-0.7-0.3 0 0 1.3-0.6 2.5-1z"/>
	<path id="&lt;Path&gt;" class="s4" d="m217.8 292.3c-0.9 0.6-1.9-0.2-2.6-1.1-0.7-1-1.1-2.2-1.1-2.2 0 0.1 5.5 2 3.7 3.3z"/>
	<path id="&lt;Path&gt;" class="s4" d="m222.1 289.2c1.2-0.4 2.3-0.6 2.2 0.5-0.2 2.2-4.8 0.5-4.8 0.5 0 0 1.3-0.6 2.6-1z"/>
	<path id="&lt;Path&gt;" class="s4" d="m222.8 293.6c-0.9 0.6-1.9-0.2-2.6-1.2-0.7-0.9-1.2-2-1.2-2 0 0 5.5 1.9 3.8 3.2z"/>
	<path id="&lt;Path&gt;" class="s4" d="m226.9 290.2c1.2-0.5 2.4-0.7 2.3 0.4-0.1 2.2-4.8 0.9-4.8 0.9 0 0 1.3-0.8 2.5-1.3z"/>
	<path id="&lt;Path&gt;" class="s4" d="m224.7 291.9c0.5 0.2 1.2 0.4 1.8 0.7 1.2 0.5 2.2 1.2 1.3 1.9-0.9 0.7-1.9 0-2.6-0.9-0.8-0.9-1.3-2-1.3-2 0 0 0.4 0.1 0.8 0.3z"/>
	<path id="&lt;Path&gt;" class="s4" d="m231.8 291.1c1.2-0.5 2.4-0.7 2.3 0.4 0 2.1-4.7 0.8-4.7 0.8 0 0 1.2-0.7 2.4-1.2z"/>
	<path id="&lt;Path&gt;" class="s4" d="m232.9 295.4c-0.9 0.7-1.9 0-2.7-0.9-0.8-0.9-1.3-2-1.3-2 0 0 5.6 1.6 4 2.9z"/>
	<path id="&lt;Path&gt;" class="s4" d="m236.8 291.8c1.1-0.6 2.3-0.9 2.3 0.2 0 2.1-4.7 1.2-4.7 1.2 0 0 1.2-0.9 2.4-1.4z"/>
	<path id="&lt;Path&gt;" class="s4" d="m238 296c-0.8 0.7-1.9 0.1-2.7-0.7-0.8-0.9-1.4-1.9-1.4-1.9 0 0 5.7 1.1 4.1 2.6z"/>
	<path id="&lt;Path&gt;" class="s4" d="m241.7 292.2c1.1-0.5 2.3-0.9 2.3 0.2 0.2 2.2-4.6 1.3-4.6 1.3 0 0 1.2-0.9 2.3-1.5z"/>
	<path id="&lt;Path&gt;" class="s4" d="m243.1 296.5c-0.8 0.7-1.8 0.1-2.7-0.7-0.9-0.9-1.5-1.9-1.5-1.9 0 0 5.7 1.1 4.2 2.6z"/>
	<path id="&lt;Path&gt;" class="s4" d="m246.7 292.5c1.1-0.7 2.2-1.1 2.3 0 0.2 2.1-4.6 1.6-4.6 1.6 0 0 1.2-0.9 2.3-1.6z"/>
	<path id="&lt;Path&gt;" class="s4" d="m248.3 296.6c-0.8 0.8-1.9 0.2-2.8-0.5-0.9-0.8-1.6-1.7-1.6-1.7 0 0 5.8 0.5 4.4 2.2z"/>
	<path id="&lt;Path&gt;" class="s4" d="m251.6 292.5c1.1-0.7 2.2-1.1 2.4 0 0.3 2.2-4.5 1.7-4.5 1.7 0 0 1.1-1 2.1-1.7z"/>
	<path id="&lt;Path&gt;" class="s4" d="m253.4 296.6c-0.7 0.8-1.8 0.3-2.7-0.5-1-0.7-1.7-1.7-1.7-1.7 0 0 5.8 0.6 4.4 2.2z"/>
	<path id="&lt;Path&gt;" class="s4" d="m256.6 292.3c1.1-0.7 2.1-1.3 2.3-0.2 0.4 2.1-4.4 2.1-4.4 2.1 0 0 1.1-1.1 2.1-1.9z"/>
	<path id="&lt;Path&gt;" class="s4" d="m254.9 294.5c0.6 0 1.2 0.1 1.9 0.2 1.3 0.2 2.4 0.7 1.7 1.6-0.6 0.9-1.8 0.4-2.7-0.3-1-0.6-1.7-1.5-1.7-1.5 0 0 0.3 0 0.8 0z"/>
	<path id="&lt;Path&gt;" class="s4" d="m261.6 291.9c1-0.8 2-1.3 2.3-0.2 0.5 2.1-4.3 2-4.3 2 0 0 0.9-1 2-1.8z"/>
	<path id="&lt;Path&gt;" class="s4" d="m263.7 295.8c-0.6 0.9-1.8 0.5-2.8-0.2-1-0.7-1.8-1.5-1.8-1.5 0 0 5.8 0 4.6 1.7z"/>
	<path id="&lt;Path&gt;" class="s4" d="m266.5 291.4c1-0.8 2.1-1.4 2.4-0.4 0.2 1.1-0.8 1.7-2 2-1.1 0.3-2.3 0.3-2.3 0.3 0 0 0.9-1 1.9-1.9z"/>
	<path id="&lt;Path&gt;" class="s4" d="m266.9 293.8c1.3 0.1 2.4 0.5 1.8 1.4-0.5 0.9-1.7 0.5-2.7-0.1-1-0.6-1.9-1.5-1.9-1.5 0 0 1.5 0 2.8 0.2z"/>
	<path id="&lt;Path&gt;" class="s4" d="m269.6 292.6c0 0 4.8-0.2 4.3-2.3-0.6-2.1-4.3 2.3-4.3 2.3z"/>
	<path id="&lt;Path&gt;" class="s4" d="m269.1 293c0 0 3.5 3.3 4.7 1.5 1.1-1.8-4.7-1.5-4.7-1.5z"/>
	<path id="&lt;Path&gt;" class="s4" d="m274.6 291.9c0 0 4.8-0.3 4.2-2.4-0.5-2-4.2 2.4-4.2 2.4z"/>
	<path id="&lt;Path&gt;" class="s4" d="m276.9 292.3c1.3 0.1 2.5 0.5 1.9 1.4-1.2 1.9-4.6-1.5-4.6-1.5 0 0 1.4 0 2.7 0.1z"/>
	<path id="&lt;Path&gt;" class="s4" d="m279.6 291.1c0 0 4.8-0.3 4.2-2.4-0.6-2.1-4.2 2.4-4.2 2.4z"/>
	<path id="&lt;Path&gt;" class="s4" d="m279.1 291.4c0 0 3.6 3.3 4.7 1.5 1.1-1.9-4.7-1.5-4.7-1.5z"/>
	<path id="&lt;Path&gt;" class="s4" d="m286.4 288.3c1-0.9 2-1.5 2.3-0.5 0.4 1-0.7 1.7-1.8 2-1.1 0.4-2.3 0.5-2.3 0.5 0 0 0.9-1.1 1.8-2z"/>
	<path id="&lt;Path&gt;" class="s4" d="m286.9 290.6c1.3 0.1 2.5 0.4 1.9 1.4-1.1 1.9-4.7-1.4-4.7-1.4 0 0 1.5-0.1 2.8 0z"/>
	<path id="&lt;Path&gt;" class="s4" d="m289.5 289.4c0 0 4.8-0.5 4.2-2.6-0.7-2-4.2 2.6-4.2 2.6z"/>
	<path id="&lt;Path&gt;" class="s4" d="m289.1 289.7c0 0 3.6 3.2 4.7 1.3 1.1-1.8-4.7-1.3-4.7-1.3z"/>
	<path id="&lt;Path&gt;" class="s4" d="m294.5 288.4c0 0 4.8-0.6 4.1-2.6-0.8-2.1-4.1 2.6-4.1 2.6z"/>
	<path id="&lt;Path&gt;" class="s4" d="m294.1 288.8c0 0 3.7 3 4.7 1.1 1-1.9-4.7-1.1-4.7-1.1z"/>
	<path id="&lt;Path&gt;" class="s4" d="m301.1 285.1c0.9-0.9 1.9-1.6 2.3-0.6 0.8 2-4 2.8-4 2.8 0 0 0.8-1.2 1.7-2.2z"/>
	<path id="&lt;Path&gt;" class="s4" d="m301.7 287.5c1.4 0 2.6 0.2 2.1 1.2-0.5 1-1.7 0.7-2.8 0.2-1-0.5-2-1.2-2-1.2 0 0 1.4-0.2 2.7-0.2z"/>
	<path id="&lt;Path&gt;" class="s4" d="m305.9 283.8c0.8-1 1.7-1.7 2.2-0.7 0.9 1.9-3.8 2.9-3.8 2.9 0 0 0.8-1.2 1.6-2.2z"/>
	<path id="&lt;Path&gt;" class="s4" d="m306.6 286.1c1.4-0.1 2.6 0.1 2.2 1.1-0.5 1-1.7 0.8-2.8 0.4-1.1-0.4-2.1-1.2-2.1-1.2 0 0 1.4-0.2 2.7-0.3z"/>
	<path id="&lt;Path&gt;" class="s4" d="m310.5 282.2c0.8-1 1.5-1.9 2.1-1 0.5 0.9-0.3 1.9-1.3 2.4-1 0.6-2.2 0.9-2.2 0.9 0 0 0.7-1.3 1.4-2.3z"/>
	<path id="&lt;Path&gt;" class="s4" d="m311.4 284.4c1.4-0.1 2.6-0.2 2.3 0.9-0.3 1.1-1.7 1-2.8 0.6-1.2-0.3-2.1-1-2.1-1 0 0 1.3-0.4 2.6-0.5z"/>
	<path id="&lt;Path&gt;" class="s4" d="m314.8 280.1c0.5-1.1 0.9-2 1.7-1.3 0.8 0.8 0.2 1.8-0.7 2.6-0.5 0.3-1 0.6-1.4 0.9-0.4 0.2-0.7 0.3-0.7 0.3 0 0 0.6-1.4 1.1-2.5z"/>
	<path id="&lt;Path&gt;" class="s4" d="m316 282.1c1.3-0.4 2.6-0.7 2.5 0.4-0.2 1.2-1.6 1.4-2.8 1.2-1.2-0.1-2.3-0.7-2.3-0.7 0 0 1.3-0.4 2.6-0.9z"/>
	<path id="&lt;Path&gt;" class="s4" d="m318.5 277.2c0.4-1.3 1.3-2.5 2.1-1.7 0.6 0.9-0.1 1.9-0.9 2.8-0.8 0.9-1.8 1.6-1.8 1.6 0 0 0.2-1.4 0.6-2.7z"/>
	<path id="&lt;Path&gt;" class="s4" d="m320.1 279c1.2-0.6 2.3-0.7 2.2 0.3 0.3 1.9-4.6 1.2-4.6 1.1 0 0 1.2-0.8 2.4-1.4z"/>
	<path id="&lt;Path&gt;" class="s4" d="m322.3 275.8c0.2-0.4 0.6-1 1-1.6 0.9-1.1 2-1.9 2.4-0.9 0.4 1-0.6 1.8-1.6 2.3-0.6 0.3-1.1 0.6-1.5 0.8-0.4 0.1-0.7 0.3-0.7 0.3 0 0 0.1-0.4 0.4-0.9z"/>
	<path id="&lt;Path&gt;" class="s4" d="m322.4 276.8c0.5-0.2 1.2-0.3 1.8-0.4 1.3-0.1 2.4 0.1 2 1.1-0.3 1-1.3 0.7-2.4 0.4-1-0.3-2.2-0.7-2.2-0.7 0 0 0.4-0.2 0.8-0.4z"/>
	<path id="&lt;Path&gt;" class="s4" d="m155.2 268.1c1.3 0.2 2.4 0.6 1.8 1.5-0.5 1-1.7 0.6-2.7-0.1-1-0.6-1.8-1.6-1.8-1.6 0 0 1.4 0 2.7 0.2z"/>
	<path id="&lt;Path&gt;" class="s4" d="m153.7 270.1c0.7 1.1 1.2 2.2 0.2 2.4-1.1 0.2-1.7-0.9-1.9-2.2-0.2-1.2-0.1-2.5-0.1-2.5 0 0 1 1.1 1.8 2.3z"/>
	<path id="&lt;Path&gt;" class="s4" d="m159.1 271.4c1.3 0.1 2.5 0.5 1.9 1.4-0.5 1-1.7 0.7-2.7 0-1.1-0.6-1.9-1.5-1.9-1.5 0 0 1.4 0 2.7 0.1z"/>
	<path id="&lt;Path&gt;" class="s4" d="m157.6 273.4c0.9 1.1 1.4 2.2 0.3 2.5-1.1 0.2-1.6-1-1.9-2.2-0.2-1.2-0.2-2.5-0.2-2.5 0 0 1 1.1 1.8 2.2z"/>
	<path id="&lt;Path&gt;" class="s4" d="m163.1 274.5c1.4 0.1 2.5 0.4 2 1.4-1.1 2-4.7-1.3-4.7-1.3 0 0 1.4-0.2 2.7-0.1z"/>
	<path id="&lt;Path&gt;" class="s4" d="m161.7 276.6c0.9 1 1.5 2.2 0.4 2.4-1.1 0.3-1.7-0.8-2-2-0.3-1.2-0.3-2.5-0.3-2.5 0 0 1.1 1 1.9 2.1z"/>
	<path id="&lt;Path&gt;" class="s4" d="m167.3 277.5c1.3 0.1 2.5 0.3 2 1.4-0.6 1-1.7 0.7-2.8 0.1-1.1-0.5-2-1.3-2-1.3 0 0 1.4-0.2 2.8-0.2z"/>
	<path id="&lt;Path&gt;" class="s4" d="m165.9 279.6c0.9 1.1 1.5 2.2 0.4 2.5-1 0.3-1.6-0.8-2-2-0.3-1.2-0.4-2.5-0.4-2.5 0 0 1.1 1 2 2z"/>
	<path id="&lt;Path&gt;" class="s4" d="m171.5 280.4c1.3 0 2.5 0.3 2 1.3-0.5 1-1.7 0.8-2.8 0.3-1.1-0.6-2-1.4-2-1.4 0 0 1.5-0.2 2.8-0.2z"/>
	<path id="&lt;Path&gt;" class="s4" d="m170.2 282.6c0.9 1 1.5 2 0.5 2.4-2.2 0.7-2.5-4.4-2.5-4.4 0 0 1.1 0.9 2 2z"/>
	<path id="&lt;Path&gt;" class="s4" d="m175.8 283.2c1.3 0 2.4 0.2 2 1.2-0.9 2.1-4.8-0.9-4.8-0.9 0 0 1.4-0.3 2.8-0.3z"/>
	<path id="&lt;Path&gt;" class="s4" d="m172.4 283.4c0 0 0.6 5.1 2.7 4.4 2-0.7-2.7-4.4-2.7-4.4z"/>
	<path id="&lt;Path&gt;" class="s4" d="m180.1 285.8c1.3-0.1 2.5 0.1 2.1 1.1-0.8 2.2-4.8-0.7-4.8-0.7 0 0 1.4-0.3 2.7-0.4z"/>
	<path id="&lt;Path&gt;" class="s4" d="m176.8 286.2c0 0 0.7 5 2.8 4.2 2-0.8-2.8-4.2-2.8-4.2z"/>
	<path id="&lt;Path&gt;" class="s4" d="m184.5 288.3c1.3-0.1 2.6 0 2.2 1.1-0.4 1-1.7 0.9-2.8 0.5-1.1-0.4-2.1-1.1-2.1-1.1 0 0 1.4-0.4 2.7-0.5z"/>
	<path id="&lt;Path&gt;" class="s4" d="m183.4 290.6c1 0.9 1.8 1.9 0.7 2.3-2.1 0.9-2.8-4.1-2.8-4.2 0 0 1.2 0.9 2.1 1.9z"/>
	<path id="&lt;Path&gt;" class="s4" d="m189 290.6c1.3-0.1 2.5 0 2.2 1.1-0.7 2.1-4.9-0.5-4.9-0.5 0 0 1.4-0.4 2.7-0.6z"/>
	<path id="&lt;Path&gt;" class="s4" d="m185.8 291.2c0 0 0.9 5 3 4.1 1.9-0.9-3-4.1-3-4.1z"/>
	<path id="&lt;Path&gt;" class="s4" d="m193.6 292.9c1.3-0.3 2.5-0.2 2.2 0.9-0.3 1.1-1.6 1-2.7 0.7-1.2-0.3-2.2-1-2.2-1 0 0 1.4-0.4 2.7-0.6z"/>
	<path id="&lt;Path&gt;" class="s4" d="m192.6 295.2c1.1 0.8 1.9 1.8 0.9 2.3-1 0.5-1.8-0.5-2.4-1.6-0.5-1.1-0.8-2.4-0.8-2.4 0 0 1.3 0.8 2.3 1.7z"/>
	<path id="&lt;Path&gt;" class="s4" d="m198.2 294.9c1.3-0.2 2.5-0.2 2.2 0.9-0.6 2.2-4.8-0.2-4.8-0.2 0 0 1.4-0.5 2.6-0.7z"/>
	<path id="&lt;Path&gt;" class="s4" d="m195 295.7c0 0 1.3 4.9 3.2 3.9 2-1.1-3.2-3.9-3.2-3.9z"/>
	<path id="&lt;Path&gt;" class="s4" d="m202.9 296.8c1.3-0.3 2.5-0.4 2.3 0.8-0.5 2.2-4.9 0-4.9 0 0 0 1.3-0.5 2.6-0.8z"/>
	<path id="&lt;Path&gt;" class="s4" d="m199.7 297.7c0 0 1.4 4.8 3.4 3.7 1.9-1.1-3.4-3.7-3.4-3.7z"/>
	<path id="&lt;Path&gt;" class="s4" d="m207.7 298.5c1.2-0.3 2.4-0.4 2.2 0.7-0.4 2.4-4.8 0.2-4.8 0.2 0 0 1.3-0.6 2.6-0.9z"/>
	<path id="&lt;Path&gt;" class="s4" d="m208 303.2c-1 0.6-1.8-0.4-2.5-1.4-0.6-1.1-1-2.3-1-2.3 0 0 5.3 2.5 3.5 3.7z"/>
	<path id="&lt;Path&gt;" class="s4" d="m212.5 300c1.3-0.4 2.4-0.5 2.3 0.6-0.4 2.3-4.9 0.5-4.9 0.5 0 0 1.3-0.7 2.6-1.1z"/>
	<path id="&lt;Path&gt;" class="s4" d="m213 304.6c-1 0.7-1.9-0.2-2.6-1.2-0.6-1-1.1-2.2-1.1-2.2 0 0 5.5 2.2 3.7 3.4z"/>
	<path id="&lt;Path&gt;" class="s4" d="m217.3 301.4c1.2-0.4 2.5-0.6 2.3 0.5-0.1 1.1-1.3 1.4-2.5 1.2-1.2-0.2-2.3-0.6-2.3-0.6 0 0 1.3-0.7 2.5-1.1z"/>
	<path id="&lt;Path&gt;" class="s4" d="m216.8 303.9c1.1 0.7 2.1 1.4 1.2 2.1-0.9 0.8-1.9-0.2-2.6-1.2-0.7-1-1.1-2.2-1.1-2.2 0 0 1.3 0.6 2.5 1.3z"/>
	<path id="&lt;Path&gt;" class="s4" d="m222.2 302.5c1.3-0.5 2.4-0.7 2.4 0.4-0.2 2.3-4.9 0.9-4.9 0.9 0 0 1.3-0.8 2.5-1.3z"/>
	<path id="&lt;Path&gt;" class="s4" d="m223.1 307.1c-0.9 0.7-1.9-0.1-2.6-1.1-0.8-0.9-1.3-2.1-1.3-2.1 0 0 5.6 1.7 3.9 3.2z"/>
	<path id="&lt;Path&gt;" class="s4" d="m227.2 303.5c1.2-0.4 2.3-0.8 2.3 0.3 0 1.1-1.3 1.5-2.4 1.4-1.2-0.1-2.4-0.4-2.4-0.4 0 0 1.3-0.8 2.5-1.3z"/>
	<path id="&lt;Path&gt;" class="s4" d="m226.8 306c1.2 0.6 2.2 1.2 1.4 2-0.9 0.9-1.9 0-2.7-0.9-0.8-1-1.3-2.1-1.3-2.1 0 0 1.4 0.4 2.6 1z"/>
	<path id="&lt;Path&gt;" class="s4" d="m232.1 304.2c1.2-0.6 2.4-1 2.4 0.2 0 2.3-4.8 1.2-4.8 1.2 0 0 1.3-0.8 2.4-1.4z"/>
	<path id="&lt;Path&gt;" class="s4" d="m233.3 308.6c-0.8 0.8-1.8 0.1-2.7-0.8-0.8-0.9-1.4-1.9-1.4-1.9 0 0 5.7 1.2 4.1 2.7z"/>
	<path id="&lt;Path&gt;" class="s4" d="m237.1 304.7c1.2-0.5 2.3-1 2.4 0.1 0 1.1-1.1 1.7-2.3 1.6-1.2 0.1-2.4-0.2-2.4-0.2 0 0 1.2-0.9 2.3-1.5z"/>
	<path id="&lt;Path&gt;" class="s4" d="m237 307.2c1.2 0.6 2.3 1.1 1.5 2-0.8 0.9-1.8 0.1-2.7-0.8-0.9-0.9-1.5-2-1.5-2 0 0 1.4 0.3 2.7 0.8z"/>
	<path id="&lt;Path&gt;" class="s4" d="m242.1 304.9c1.2-0.7 2.3-1.1 2.4 0 0.2 2.3-4.6 1.7-4.6 1.7 0 0 1.1-1 2.2-1.7z"/>
	<path id="&lt;Path&gt;" class="s4" d="m243.7 309.2c-0.7 0.9-1.8 0.3-2.7-0.5-0.9-0.8-1.6-1.8-1.6-1.8 0 0 5.8 0.6 4.3 2.3z"/>
	<path id="&lt;Path&gt;" class="s4" d="m247.2 305c1.1-0.7 2.2-1.2 2.3-0.1 0.3 2.4-4.5 1.8-4.5 1.8 0 0 1.1-1 2.2-1.7z"/>
	<path id="&lt;Path&gt;" class="s4" d="m248.9 309.3c-0.7 0.9-1.8 0.3-2.8-0.5-0.9-0.8-1.6-1.8-1.6-1.8 0 0 5.8 0.6 4.4 2.3z"/>
	<path id="&lt;Path&gt;" class="s4" d="m252.2 304.7c1-0.8 2.1-1.4 2.3-0.3 0.4 2.3-4.4 2.2-4.4 2.2 0 0 1-1.1 2.1-1.9z"/>
	<path id="&lt;Path&gt;" class="s4" d="m254.1 308.8c-0.6 1-1.8 0.5-2.8-0.2-0.9-0.7-1.7-1.6-1.7-1.6 0 0 5.8 0 4.5 1.8z"/>
	<path id="&lt;Path&gt;" class="s4" d="m257.2 304.2c1-0.8 2-1.3 2.3-0.2 0.5 2.2-4.4 2.2-4.4 2.2 0 0 1-1.1 2.1-2z"/>
	<path id="&lt;Path&gt;" class="s4" d="m259.3 308.4c-0.6 0.9-1.8 0.4-2.8-0.3-1-0.7-1.8-1.6-1.8-1.6 0 0 5.8 0 4.6 1.9z"/>
	<path id="&lt;Path&gt;" class="s4" d="m260.2 305.7c0 0 4.9-0.3 4.3-2.5-0.5-2.2-4.3 2.5-4.3 2.5z"/>
	<path id="&lt;Path&gt;" class="s4" d="m259.8 306c0 0 3.4 3.5 4.6 1.6 1.2-1.9-4.6-1.6-4.6-1.6z"/>
	<path id="&lt;Path&gt;" class="s4" d="m265.3 304.9c0 0 4.8-0.3 4.3-2.5-0.6-2.2-4.3 2.5-4.3 2.5z"/>
	<path id="&lt;Path&gt;" class="s4" d="m264.8 305.2c0 0 3.5 3.5 4.7 1.6 1.2-1.9-4.7-1.6-4.7-1.6z"/>
	<path id="&lt;Path&gt;" class="s4" d="m270.3 304.1c0 0 4.9-0.3 4.3-2.5-0.5-2.2-4.3 2.5-4.3 2.5z"/>
	<path id="&lt;Path&gt;" class="s4" d="m269.9 304.4c0 0 3.5 3.5 4.7 1.6 1.1-1.9-4.7-1.6-4.7-1.6z"/>
	<path id="&lt;Path&gt;" class="s4" d="m275.4 303.3c0 0 4.8-0.3 4.3-2.5-0.6-2.2-4.3 2.5-4.3 2.5z"/>
	<path id="&lt;Path&gt;" class="s4" d="m274.9 303.6c0 0 3.6 3.5 4.7 1.6 1.2-1.9-4.7-1.6-4.7-1.6z"/>
	<path id="&lt;Path&gt;" class="s4" d="m280.4 302.5c0 0 4.9-0.5 4.3-2.7-0.6-2.1-4.3 2.7-4.3 2.7z"/>
	<path id="&lt;Path&gt;" class="s4" d="m280 302.8c0 0 3.5 3.4 4.7 1.4 1.1-1.9-4.7-1.4-4.7-1.4z"/>
	<path id="&lt;Path&gt;" class="s4" d="m285.4 301.5c0 0 4.9-0.5 4.3-2.6-0.7-2.2-4.3 2.6-4.3 2.6z"/>
	<path id="&lt;Path&gt;" class="s4" d="m285 301.9c0 0 3.6 3.3 4.7 1.3 1.1-1.9-4.7-1.3-4.7-1.3z"/>
	<path id="&lt;Path&gt;" class="s4" d="m290.5 300.5c0 0 4.8-0.5 4.2-2.6-0.7-2.2-4.2 2.6-4.2 2.6z"/>
	<path id="&lt;Path&gt;" class="s4" d="m290 300.9c0 0 3.7 3.3 4.8 1.4 1.1-2-4.8-1.4-4.8-1.4z"/>
	<path id="&lt;Path&gt;" class="s4" d="m297.3 297.3c0.9-1 1.9-1.7 2.3-0.7 0.7 2.2-4.1 2.9-4.1 2.9 0 0 0.8-1.2 1.8-2.2z"/>
	<path id="&lt;Path&gt;" class="s4" d="m297.8 299.7c1.3 0 2.5 0.3 2 1.3-0.5 1.1-1.7 0.8-2.8 0.3-1-0.6-1.9-1.4-1.9-1.4 0 0 1.4-0.2 2.7-0.2z"/>
	<path id="&lt;Path&gt;" class="s4" d="m302.2 296c0.9-1 1.9-1.7 2.3-0.6 0.8 2.1-4.1 2.9-4.1 2.9 0 0 0.9-1.3 1.8-2.3z"/>
	<path id="&lt;Path&gt;" class="s4" d="m300 298.6c0 0 3.9 3.2 4.9 1.2 0.9-2.1-4.9-1.2-4.9-1.2z"/>
	<path id="&lt;Path&gt;" class="s4" d="m309.3 293.9c0.4 1-0.5 1.8-1.6 2.3-0.5 0.3-1.1 0.5-1.6 0.6-0.4 0.2-0.7 0.2-0.7 0.2 0.1 0.1 3-5.2 3.9-3.1z"/>
	<path id="&lt;Path&gt;" class="s4" d="m309.9 298.2c-0.5 1.1-1.7 0.9-2.8 0.4-1.1-0.4-2.1-1.2-2.1-1.2 0 0.1 5.7-1.3 4.9 0.8z"/>
	<path id="&lt;Path&gt;" class="s4" d="m311.8 293.1c0.8-1.1 1.6-2 2.1-1 0.6 1-0.3 1.9-1.4 2.5-1 0.5-2.2 0.8-2.2 0.8 0 0 0.7-1.3 1.5-2.3z"/>
	<path id="&lt;Path&gt;" class="s4" d="m312.7 295.4c1.3-0.1 2.5-0.1 2.2 1-0.4 1.2-1.7 1-2.9 0.6-1.1-0.5-2.1-1.2-2.1-1.2 0 0 1.4-0.3 2.8-0.4z"/>
	<path id="&lt;Path&gt;" class="s4" d="m316.4 291.1c0.6-1.1 1.4-2.1 2-1.2 0.6 1-0.2 2-1.2 2.6-1 0.7-2.2 1-2.2 1 0 0 0.7-1.3 1.4-2.4z"/>
	<path id="&lt;Path&gt;" class="s4" d="m317.4 293.3c1.3-0.2 2.6-0.3 2.3 0.8-0.2 1.2-1.6 1.2-2.8 0.8-1.2-0.3-2.2-0.9-2.2-0.9 0 0 1.4-0.5 2.7-0.7z"/>
	<path id="&lt;Path&gt;" class="s4" d="m320.8 288.6c0.8-1.2 1.7-2.1 2.3-1.2 0.5 1-0.4 2-1.3 2.7-1 0.7-2.2 1.2-2.2 1.2 0 0 0.5-1.5 1.2-2.7z"/>
	<path id="&lt;Path&gt;" class="s4" d="m322 290.9c1.3-0.3 2.4-0.3 2.2 0.8-0.4 2.1-4.9 0.1-4.9 0.1 0 0 1.4-0.7 2.7-0.9z"/>
	<path id="&lt;Path&gt;" class="s4" d="m324.6 288c0.3-0.5 0.7-1.1 1.1-1.6 0.9-1.1 2-2 2.4-0.9 0.4 1-0.6 1.8-1.6 2.4-1.1 0.6-2.3 0.9-2.3 0.9 0 0 0.2-0.4 0.4-0.8z"/>
	<path id="&lt;Path&gt;" class="s4" d="m328.6 289.9c-0.4 1-1.4 0.8-2.5 0.4-1.2-0.5-2.2-1-2.2-1 0-0.2 5.6-1.6 4.7 0.6z"/>
	<path id="&lt;Path&gt;" class="s4" d="m155.3 283.7c1.2 0.2 2.4 0.6 1.8 1.5-0.6 0.9-1.7 0.5-2.7-0.1-1-0.6-1.8-1.5-1.8-1.5 0 0 1.4 0 2.7 0.1z"/>
	<path id="&lt;Path&gt;" class="s4" d="m153.8 285.6c0.7 1.1 1.2 2.2 0.1 2.3-1 0.2-1.5-0.9-1.8-2.1-0.2-1.1-0.1-2.3-0.1-2.3 0 0 1 1 1.8 2.1z"/>
	<path id="&lt;Path&gt;" class="s4" d="m159.1 286.9c1.3 0.1 2.5 0.4 1.9 1.3-0.5 1-1.7 0.6-2.7 0-1-0.5-1.9-1.4-1.9-1.4 0 0 1.4-0.1 2.7 0.1z"/>
	<path id="&lt;Path&gt;" class="s4" d="m157.7 288.7c0.8 1.1 1.3 2.2 0.3 2.4-1.1 0.2-1.6-0.9-1.9-2-0.3-1.2-0.2-2.4-0.2-2.4 0 0 1 1 1.8 2z"/>
	<path id="&lt;Path&gt;" class="s4" d="m163.1 289.8c1.3 0.1 2.5 0.4 1.9 1.4-1 1.9-4.6-1.3-4.6-1.3 0 0 1.4-0.1 2.7-0.1z"/>
	<path id="&lt;Path&gt;" class="s4" d="m161.7 291.8c0.9 1 1.4 2.1 0.4 2.3-1.1 0.3-1.7-0.8-2-1.9-0.3-1.2-0.3-2.4-0.3-2.4 0 0 1.1 1 1.9 2z"/>
	<path id="&lt;Path&gt;" class="s4" d="m167.2 292.7c1.3 0 2.4 0.3 1.9 1.3-0.5 0.9-1.6 0.7-2.7 0.1-1-0.5-1.9-1.3-1.9-1.3 0 0 1.4-0.1 2.7-0.1z"/>
	<path id="&lt;Path&gt;" class="s4" d="m165.9 294.7c0.8 1 1.4 2 0.4 2.3-1.1 0.3-1.7-0.8-2-1.9-0.4-1.1-0.4-2.3-0.4-2.3 0 0 1.1 0.9 2 1.9z"/>
	<path id="&lt;Path&gt;" class="s4" d="m171.3 295.5c1.3 0 2.5 0.2 2 1.2-0.4 0.9-1.6 0.7-2.7 0.2-1.1-0.5-2-1.3-2-1.3 0 0 1.4-0.2 2.7-0.1z"/>
	<path id="&lt;Path&gt;" class="s4" d="m170.1 297.5c0.8 0.9 1.5 2 0.5 2.3-2.2 0.7-2.5-4.2-2.5-4.2 0 0 1.1 0.9 2 1.9z"/>
	<path id="&lt;Path&gt;" class="s4" d="m175.6 298.1c1.3 0 2.4 0.2 2 1.2-0.9 2-4.7-0.9-4.7-0.9 0 0 1.4-0.3 2.7-0.3z"/>
	<path id="&lt;Path&gt;" class="s4" d="m172.3 298.3c0 0 0.5 4.8 2.6 4.2 2-0.7-2.6-4.2-2.6-4.2z"/>
	<path id="&lt;Path&gt;" class="s4" d="m179.9 300.6c1.3-0.1 2.5 0.1 2 1.1-0.8 2-4.7-0.7-4.7-0.7 0 0 1.4-0.3 2.7-0.4z"/>
	<path id="&lt;Path&gt;" class="s4" d="m176.6 300.9c0 0 0.7 4.8 2.8 4.1 2-0.8-2.8-4.1-2.8-4.1z"/>
	<path id="&lt;Path&gt;" class="s4" d="m184.2 303c1.3-0.1 2.5 0 2.1 1-0.3 1-1.5 0.9-2.7 0.5-1.1-0.4-2-1.1-2-1.1 0 0 1.4-0.3 2.6-0.4z"/>
	<path id="&lt;Path&gt;" class="s4" d="m183.1 305.1c1 0.9 1.8 1.8 0.7 2.3-1 0.4-1.7-0.6-2.2-1.7-0.4-1.1-0.6-2.3-0.6-2.3 0 0 1.2 0.8 2.1 1.7z"/>
	<path id="&lt;Path&gt;" class="s4" d="m188.7 305.2c1.3-0.2 2.5 0 2.1 1-0.7 2-4.8-0.5-4.8-0.5 0 0 1.4-0.4 2.7-0.5z"/>
	<path id="&lt;Path&gt;" class="s4" d="m185.5 305.7c0 0 0.9 4.8 2.9 3.9 2-0.9-2.9-3.9-2.9-3.9z"/>
	<path id="&lt;Path&gt;" class="s4" d="m193.2 307.3c1.3-0.2 2.5-0.1 2.2 0.9-0.4 1-1.6 1-2.7 0.7-1.1-0.3-2.2-1-2.2-1 0 0 1.4-0.4 2.7-0.6z"/>
	<path id="&lt;Path&gt;" class="s4" d="m192.2 309.5c1.1 0.8 1.9 1.7 0.9 2.2-1 0.5-1.8-0.4-2.3-1.5-0.6-1-0.8-2.2-0.8-2.2 0 0 1.2 0.7 2.2 1.5z"/>
	<path id="&lt;Path&gt;" class="s4" d="m197.8 309.3c1.2-0.2 2.4-0.2 2.1 0.8-0.5 2.1-4.8-0.2-4.8-0.2 0 0 1.4-0.4 2.7-0.6z"/>
	<path id="&lt;Path&gt;" class="s4" d="m194.6 310c0 0 1.2 4.7 3.2 3.7 1.9-1-3.2-3.7-3.2-3.7z"/>
	<path id="&lt;Path&gt;" class="s4" d="m202.4 311.1c1.3-0.3 2.5-0.3 2.2 0.7-0.5 2.1-4.8 0.1-4.8 0.1 0 0 1.3-0.5 2.6-0.8z"/>
	<path id="&lt;Path&gt;" class="s4" d="m202.6 315.5c-1 0.5-1.8-0.4-2.4-1.4-0.6-1-1-2.1-1-2.1 0 0 5.2 2.4 3.4 3.5z"/>
	<path id="&lt;Path&gt;" class="s4" d="m207.1 312.7c1.2-0.3 2.4-0.3 2.2 0.7-0.4 2.2-4.8 0.2-4.8 0.2 0 0 1.3-0.6 2.6-0.9z"/>
	<path id="&lt;Path&gt;" class="s4" d="m204 313.7c0 0 1.5 4.5 3.4 3.5 1.8-1.1-3.4-3.5-3.4-3.5z"/>
	<path id="&lt;Path&gt;" class="s4" d="m211.8 314.2c1.3-0.4 2.4-0.5 2.3 0.6-0.3 2.1-4.8 0.4-4.8 0.4 0 0 1.3-0.7 2.5-1z"/>
	<path id="&lt;Path&gt;" class="s4" d="m212.3 318.5c-0.9 0.7-1.8-0.2-2.5-1.1-0.7-1-1.1-2.1-1.1-2.1 0 0 5.4 2 3.6 3.2z"/>
	<path id="&lt;Path&gt;" class="s4" d="m216.6 315.5c1.2-0.3 2.4-0.5 2.3 0.5-0.3 2.3-4.8 0.5-4.8 0.5 0 0 1.3-0.6 2.5-1z"/>
	<path id="&lt;Path&gt;" class="s4" d="m217.3 319.9c-0.9 0.7-1.9-0.2-2.6-1.2-0.7-0.9-1.1-2-1.1-2 0 0 5.4 2 3.7 3.2z"/>
	<path id="&lt;Path&gt;" class="s4" d="m221.5 316.6c1.2-0.5 2.3-0.7 2.2 0.4-0.1 2.2-4.7 0.8-4.7 0.8 0 0 1.2-0.8 2.5-1.2z"/>
	<path id="&lt;Path&gt;" class="s4" d="m222.3 320.9c-0.9 0.7-1.9-0.1-2.6-1-0.8-0.9-1.3-2-1.3-2 0 0 5.6 1.7 3.9 3z"/>
	<path id="&lt;Path&gt;" class="s4" d="m226.3 317.5c1.2-0.4 2.3-0.7 2.3 0.4 0 1-1.2 1.4-2.4 1.3-1.1-0.1-2.3-0.5-2.3-0.5 0 0 1.2-0.7 2.4-1.2z"/>
	<path id="&lt;Path&gt;" class="s4" d="m225.9 319.9c1.2 0.6 2.3 1.2 1.4 2-0.8 0.7-1.8-0.1-2.6-1-0.8-0.9-1.3-2-1.3-2 0 0 1.4 0.4 2.5 1z"/>
	<path id="&lt;Path&gt;" class="s4" d="m231.2 318.2c1.2-0.6 2.3-0.9 2.3 0.2 0.1 2.2-4.6 1.2-4.6 1.2 0 0 1.2-0.8 2.3-1.4z"/>
	<path id="&lt;Path&gt;" class="s4" d="m232.4 322.4c-0.8 0.8-1.8 0.1-2.7-0.7-0.8-0.9-1.4-1.9-1.4-1.9 0 0 5.7 1.2 4.1 2.6z"/>
	<path id="&lt;Path&gt;" class="s4" d="m236.1 318.7c1.2-0.5 2.3-0.9 2.4 0.2 0.1 2.3-4.7 1.3-4.7 1.3 0 0 1.2-0.9 2.3-1.5z"/>
	<path id="&lt;Path&gt;" class="s4" d="m237.5 323c-0.8 0.8-1.8 0.1-2.7-0.8-0.8-0.8-1.5-1.8-1.5-1.8 0 0 5.7 1.1 4.2 2.6z"/>
	<path id="&lt;Path&gt;" class="s4" d="m241.1 319c1.1-0.7 2.2-1.1 2.3 0 0.2 2.1-4.6 1.6-4.6 1.6 0 0 1.2-1 2.3-1.6z"/>
	<path id="&lt;Path&gt;" class="s4" d="m242.6 323.1c-0.7 0.8-1.8 0.2-2.7-0.5-0.9-0.8-1.5-1.8-1.5-1.8 0 0 5.7 0.7 4.2 2.3z"/>
	<path id="&lt;Path&gt;" class="s4" d="m246 319.1c1.1-0.7 2.2-1.1 2.3-0.1 0.2 1.1-0.9 1.6-2.1 1.7-1.1 0.1-2.3 0-2.3 0 0 0 1.1-1 2.1-1.6z"/>
	<path id="&lt;Path&gt;" class="s4" d="m247.8 323.2c-0.7 0.8-1.8 0.2-2.8-0.5-0.9-0.8-1.6-1.8-1.6-1.8 0 0 5.7 0.7 4.4 2.3z"/>
	<path id="&lt;Path&gt;" class="s4" d="m251 318.8c1-0.8 2.1-1.3 2.3-0.2 0.4 2.1-4.4 2.1-4.4 2.1 0 0 1-1.1 2.1-1.9z"/>
	<path id="&lt;Path&gt;" class="s4" d="m252.9 322.8c-0.7 0.9-1.8 0.4-2.8-0.3-0.9-0.6-1.7-1.5-1.7-1.5 0 0 5.8 0 4.5 1.8z"/>
	<path id="&lt;Path&gt;" class="s4" d="m255.9 318.4c1-0.7 2-1.3 2.3-0.2 0.5 2.1-4.3 2-4.3 2 0 0 1-1 2-1.8z"/>
	<path id="&lt;Path&gt;" class="s4" d="m258 322.3c-0.6 0.9-1.8 0.5-2.8-0.2-1-0.7-1.8-1.6-1.8-1.6 0 0 5.8 0.1 4.6 1.8z"/>
	<path id="&lt;Path&gt;" class="s4" d="m258.9 319.8c0 0 4.8-0.1 4.3-2.2-0.5-2.1-4.3 2.2-4.3 2.2z"/>
	<path id="&lt;Path&gt;" class="s4" d="m258.5 320.1c0 0 3.4 3.4 4.5 1.6 1.2-1.8-4.5-1.6-4.5-1.6z"/>
	<path id="&lt;Path&gt;" class="s4" d="m263.9 319.2c0 0 4.8-0.2 4.3-2.3-0.5-2.1-4.3 2.3-4.3 2.3z"/>
	<path id="&lt;Path&gt;" class="s4" d="m263.4 319.5c0 0 3.5 3.4 4.6 1.6 1.2-1.8-4.6-1.6-4.6-1.6z"/>
	<path id="&lt;Path&gt;" class="s4" d="m268.9 318.5c0 0 4.8-0.1 4.3-2.2-0.5-2.1-4.3 2.2-4.3 2.2z"/>
	<path id="&lt;Path&gt;" class="s4" d="m268.4 318.9c0 0 3.4 3.4 4.6 1.6 1.2-1.8-4.6-1.6-4.6-1.6z"/>
	<path id="&lt;Path&gt;" class="s4" d="m273.9 317.9c0 0 4.8-0.1 4.3-2.2-0.5-2.1-4.3 2.2-4.3 2.2z"/>
	<path id="&lt;Path&gt;" class="s4" d="m273.4 318.2c0 0 3.4 3.4 4.6 1.6 1.2-1.8-4.6-1.6-4.6-1.6z"/>
	<path id="&lt;Path&gt;" class="s4" d="m278.9 317.3c0 0 4.8-0.2 4.3-2.3-0.5-2.1-4.3 2.3-4.3 2.3z"/>
	<path id="&lt;Path&gt;" class="s4" d="m278.4 317.6c0 0 3.4 3.4 4.6 1.6 1.2-1.8-4.6-1.6-4.6-1.6z"/>
	<path id="&lt;Path&gt;" class="s4" d="m283.9 316.6c0 0 4.8-0.1 4.3-2.2-0.5-2.1-4.3 2.2-4.3 2.2z"/>
	<path id="&lt;Path&gt;" class="s4" d="m283.4 317c0 0 3.4 3.4 4.6 1.6 1.2-1.8-4.6-1.6-4.6-1.6z"/>
	<path id="&lt;Path&gt;" class="s4" d="m288.9 316c0 0 4.8-0.1 4.3-2.2-0.5-2.1-4.3 2.2-4.3 2.2z"/>
	<path id="&lt;Path&gt;" class="s4" d="m288.4 316.3c0 0 3.4 3.5 4.6 1.6 1.2-1.8-4.6-1.6-4.6-1.6z"/>
	<path id="&lt;Path&gt;" class="s4" d="m293.9 315.4c0 0 4.8-0.1 4.3-2.2-0.5-2.1-4.3 2.2-4.3 2.2z"/>
	<path id="&lt;Path&gt;" class="s4" d="m293.4 315.7c0 0 3.4 3.5 4.6 1.7 1.2-1.8-4.6-1.7-4.6-1.7z"/>
	<path id="&lt;Path&gt;" class="s4" d="m298.9 314.8c0 0 4.8 0 4.3-2.1-0.4-2.1-4.3 2.1-4.3 2.1z"/>
	<path id="&lt;Path&gt;" class="s4" d="m298.4 315.2c0 0 3.3 3.5 4.6 1.7 1.2-1.8-4.6-1.7-4.6-1.7z"/>
	<path id="&lt;Path&gt;" class="s4" d="m303.9 314.3c0 0 4.8 0 4.4-2.1-0.5-2.1-4.4 2.1-4.4 2.1z"/>
	<path id="&lt;Path&gt;" class="s4" d="m303.4 314.6c0 0 3.3 3.5 4.6 1.8 1.2-1.8-4.6-1.8-4.6-1.8z"/>
	<path id="&lt;Path&gt;" class="s4" d="m310.9 311.9c1-0.8 2-1.3 2.3-0.3 0.5 2.1-4.3 2.2-4.3 2.2 0 0 1-1.1 2-1.9z"/>
	<path id="&lt;Path&gt;" class="s4" d="m313 315.8c-0.6 0.9-1.8 0.5-2.8-0.2-0.9-0.6-1.8-1.5-1.8-1.5 0 0 5.8-0.1 4.6 1.7z"/>
	<path id="&lt;Path&gt;" class="s4" d="m315.8 311.4c0.9-0.9 1.9-1.6 2.2-0.6 0.3 1-0.7 1.8-1.8 2.1-1.1 0.3-2.3 0.3-2.3 0.3 0 0 0.9-1 1.9-1.8z"/>
	<path id="&lt;Path&gt;" class="s4" d="m316.2 313.7c1.3 0.1 2.5 0.3 1.9 1.3-0.2 0.5-0.7 0.7-1.2 0.7-0.5-0.1-1-0.3-1.6-0.6-1-0.7-1.8-1.5-1.8-1.5 0 0 1.4-0.1 2.7 0.1z"/>
	<path id="&lt;Path&gt;" class="s4" d="m320.5 310.2c0.9-0.9 1.9-1.6 2.3-0.6 0.8 2.1-4 2.8-4 2.8 0 0 0.9-1.2 1.7-2.2z"/>
	<path id="&lt;Path&gt;" class="s4" d="m323.2 313.8c-0.5 1-1.8 0.7-2.8 0.2-1.1-0.5-2-1.3-2-1.3 0 0 5.7-0.8 4.8 1.1z"/>
	<path id="&lt;Path&gt;" class="s5" d="m327.2 279.6c-32.8 13.4-72.2 5.9-103.7 27.1-4.8 2.7-7.2 8.2-7.5 14.5-21-4.3-40.2-11.3-52.1-21.1 4.3-14.2 0-30.2-10.8-39.5 2.7-6.2 5.5-10.6 5.5-10.6 2.8 2.4 72.6 54.5 164.9 19.6 0 0 2.2 3.9 3.7 10z"/>
	<path id="&lt;Path&gt;" class="s3" d="m223.6 280.5c0 0-9.9-2.1-11.1 35-1.9 57 1.8 50.5-2.5 66.1-4.3 15.6-40.3-3.3-40.3-3.3 0 0-15.1-8-1.5-55.2 5.5-26.7 2.6-59.2 18.5-56.2 15.9 2.9 27.9-10 36.9 13.6z"/>
	<path id="&lt;Path&gt;" class="s4" d="m198.5 384.4c-0.5-1.3-0.7-2.5 0.4-2.4 1 0.1 1.3 1.2 1.2 2.4 0 1.2-0.3 2.4-0.3 2.4 0 0-0.7-1.2-1.3-2.4z"/>
	<path id="&lt;Path&gt;" class="s4" d="m200.9 384.7c0.5-1.2 1.2-2.2 1.9-1.3 0.7 0.8 0 1.8-0.9 2.6-0.9 0.8-2 1.3-2 1.3 0 0 0.5-1.4 1-2.6z"/>
	<path id="&lt;Path&gt;" class="s4" d="m200.6 381.8c0 0 1.2-4.8-1-4.8-2.2-0.1 1 4.8 1 4.8z"/>
	<path id="&lt;Path&gt;" class="s4" d="m200.8 382.3c0 0 4.2-2.4 2.8-4.1-1.4-1.6-2.8 4.1-2.8 4.1z"/>
	<path id="&lt;Path&gt;" class="s4" d="m200 374.3c-0.5-1.2-0.8-2.4 0.2-2.4 1.1 0 1.4 1.2 1.4 2.4 0.1 1.2-0.2 2.4-0.2 2.4 0 0-0.8-1.2-1.4-2.4z"/>
	<path id="&lt;Path&gt;" class="s4" d="m202.4 374.6c0.5-1.3 1.1-2.3 1.9-1.5 1.5 1.7-2.8 4.1-2.8 4.1 0 0 0.4-1.4 0.9-2.6z"/>
	<path id="&lt;Path&gt;" class="s4" d="m202 371.6c0 0 0.9-4.7-1.3-4.7-2.1 0 1.3 4.7 1.3 4.7z"/>
	<path id="&lt;Path&gt;" class="s4" d="m202.2 372.2c0 0 4.1-2.6 2.6-4.2-1.5-1.6-2.6 4.2-2.6 4.2z"/>
	<path id="&lt;Path&gt;" class="s4" d="m202.5 366.6c0 0 1-4.8-1.3-4.8-2.1 0.1 1.3 4.8 1.3 4.8z"/>
	<path id="&lt;Path&gt;" class="s4" d="m202.7 367.1c0 0 4.1-2.7 2.6-4.2-1.5-1.6-2.6 4.2-2.6 4.2z"/>
	<path id="&lt;Path&gt;" class="s4" d="m202.9 361.5c0 0 0.7-4.9-1.4-4.7-2.2 0.1 1.4 4.7 1.4 4.7z"/>
	<path id="&lt;Path&gt;" class="s4" d="m203.2 362c0 0 3.9-2.7 2.4-4.3-1.6-1.5-2.4 4.3-2.4 4.3z"/>
	<path id="&lt;Path&gt;" class="s4" d="m203.2 356.4c0 0 0.7-4.9-1.5-4.7-2.1 0.1 1.5 4.7 1.5 4.7z"/>
	<path id="&lt;Path&gt;" class="s4" d="m203.4 356.9c0 0 4-2.8 2.4-4.4-1.5-1.4-2.4 4.4-2.4 4.4z"/>
	<path id="&lt;Path&gt;" class="s4" d="m201.9 346.6c1.1-0.1 1.5 1.1 1.6 2.3 0.1 1.1 0 2.4 0 2.4 0 0-3.7-4.5-1.6-4.7z"/>
	<path id="&lt;Path&gt;" class="s4" d="m204.3 349c0.4-1.2 0.9-2.3 1.8-1.6 1.6 1.5-2.4 4.4-2.4 4.4 0 0 0.2-1.5 0.6-2.8z"/>
	<path id="&lt;Path&gt;" class="s4" d="m203.6 346.2c0-0.1 0.6-4.9-1.6-4.7-2.1 0.2 1.6 4.6 1.6 4.7z"/>
	<path id="&lt;Path&gt;" class="s4" d="m203.9 346.6c0 0 3.9-2.9 2.2-4.3-1.6-1.5-2.2 4.3-2.2 4.3z"/>
	<path id="&lt;Path&gt;" class="s4" d="m203.7 341c0 0 0.6-4.8-1.6-4.6-2.1 0.2 1.6 4.6 1.6 4.6z"/>
	<path id="&lt;Path&gt;" class="s4" d="m204 341.5c0 0 3.8-2.9 2.2-4.4-1.6-1.4-2.2 4.4-2.2 4.4z"/>
	<path id="&lt;Path&gt;" class="s4" d="m203.8 335.9c0 0 0.5-4.8-1.7-4.6-2.1 0.2 1.7 4.6 1.7 4.6z"/>
	<path id="&lt;Path&gt;" class="s4" d="m204.1 336.4c0 0 3.8-2.9 2.2-4.4-1.7-1.4-2.2 4.4-2.2 4.4z"/>
	<path id="&lt;Path&gt;" class="s4" d="m203.8 330.8c0 0 0.5-4.9-1.6-4.6-2.2 0.2 1.6 4.6 1.6 4.6z"/>
	<path id="&lt;Path&gt;" class="s4" d="m204.1 331.3c0 0 3.8-3 2.2-4.4-1.6-1.4-2.2 4.4-2.2 4.4z"/>
	<path id="&lt;Path&gt;" class="s4" d="m203.9 325.7c0 0 0.5-4.9-1.7-4.6-2.1 0.2 1.7 4.6 1.7 4.6z"/>
	<path id="&lt;Path&gt;" class="s4" d="m204.1 326.2c0 0 3.9-3 2.3-4.4-1.7-1.4-2.3 4.4-2.3 4.4z"/>
	<path id="&lt;Path&gt;" class="s4" d="m203.9 320.6c0 0 0.6-4.9-1.6-4.7-2.1 0.2 1.6 4.7 1.6 4.7z"/>
	<path id="&lt;Path&gt;" class="s4" d="m204.2 321.1c0 0 3.8-3 2.2-4.4-1.6-1.5-2.2 4.4-2.2 4.4z"/>
	<path id="&lt;Path&gt;" class="s4" d="m204 315.4c0 0 0.5-4.8-1.6-4.6-2.2 0.2 1.6 4.6 1.6 4.6z"/>
	<path id="&lt;Path&gt;" class="s4" d="m204.3 315.9c0 0 3.8-2.9 2.2-4.3-1.6-1.5-2.2 4.3-2.2 4.3z"/>
	<path id="&lt;Path&gt;" class="s4" d="m204.1 310.3c0 0 0.6-4.8-1.5-4.6-2.2 0.1 1.5 4.6 1.5 4.6z"/>
	<path id="&lt;Path&gt;" class="s4" d="m204.4 310.8c0 0 3.8-2.8 2.2-4.3-1.6-1.5-2.2 4.3-2.2 4.3z"/>
	<path id="&lt;Path&gt;" class="s4" d="m204.3 305.2c0 0 0.6-4.8-1.5-4.7-2.2 0.2 1.5 4.7 1.5 4.7z"/>
	<path id="&lt;Path&gt;" class="s4" d="m204.5 305.7c0 0 3.9-2.8 2.3-4.3-1.5-1.5-2.3 4.3-2.3 4.3z"/>
	<path id="&lt;Path&gt;" class="s4" d="m203 297.8c-0.7-1.2-1-2.4 0.1-2.4 2.1-0.1 1.4 4.7 1.4 4.7 0 0-0.9-1.1-1.5-2.3z"/>
	<path id="&lt;Path&gt;" class="s4" d="m204.7 300.6c0 0 4-2.7 2.4-4.2-1.5-1.6-2.4 4.2-2.4 4.2z"/>
	<path id="&lt;Path&gt;" class="s4" d="m203.3 292.6c-0.5-1.2-0.8-2.4 0.3-2.4 2.1 0 1.2 4.8 1.2 4.8 0 0-0.9-1.2-1.5-2.4z"/>
	<path id="&lt;Path&gt;" class="s4" d="m205.7 292.8c0.5-1.2 1.1-2.3 1.9-1.5 1.5 1.6-2.6 4.2-2.6 4.2 0 0 0.3-1.5 0.7-2.7z"/>
	<path id="&lt;Path&gt;" class="s4" d="m203.9 287.4c-0.5-1.2-0.7-2.4 0.3-2.4 1.1 0.1 1.4 1.3 1.3 2.5 0 1.2-0.2 2.4-0.2 2.4 0 0-0.8-1.2-1.4-2.5z"/>
	<path id="&lt;Path&gt;" class="s4" d="m206.3 287.7c0.5-1.2 1.2-2.1 1.9-1.3 0.7 0.8 0 1.7-0.8 2.5-0.9 0.9-1.9 1.5-1.9 1.5 0 0 0.3-1.4 0.8-2.7z"/>
	<path id="&lt;Path&gt;" class="s4" d="m204.8 282.3c-0.4-1.3-0.6-2.6 0.5-2.5 1 0.2 1.2 1.4 1.1 2.6-0.1 1.2-0.4 2.4-0.4 2.4 0 0-0.8-1.2-1.2-2.5z"/>
	<path id="&lt;Path&gt;" class="s4" d="m207.1 282.7c0.6-1.1 1.4-2.1 2-1.2 0.7 0.9-0.1 1.7-1 2.5-0.9 0.7-1.9 1.3-1.9 1.3 0 0 0.4-1.4 0.9-2.6z"/>
	<path id="&lt;Path&gt;" class="s4" d="m206.1 277.1c-0.3-1.3-0.2-2.7 0.8-2.4 1.1 0.3 1 1.6 0.8 2.7-0.2 1.2-0.6 2.4-0.6 2.4 0 0-0.7-1.3-1-2.7z"/>
	<path id="&lt;Path&gt;" class="s4" d="m208.4 277.8c0.7-1.1 1.6-1.8 2.1-0.9 0.5 0.9-0.3 1.7-1.2 2.3-1 0.6-2.1 1.1-2.1 1.1 0 0 0.4-1.4 1.2-2.5z"/>
	<path id="&lt;Path&gt;" class="s4" d="m208.5 274c-0.1-0.5-0.3-1.2-0.2-1.9 0-1.5 0.6-2.9 1.5-2.3 0.9 0.6 0.4 1.8 0 2.9-0.3 0.6-0.5 1.1-0.7 1.5-0.3 0.4-0.4 0.7-0.4 0.7 0 0-0.1-0.4-0.2-0.9z"/>
	<path id="&lt;Path&gt;" class="s4" d="m210.4 273.2c0.9-0.9 2-1.3 2.2-0.3 0.3 0.9-0.6 1.4-1.6 1.8-1.1 0.4-2.2 0.8-2.2 0.8-0.1-0.1 0.6-1.4 1.6-2.3z"/>
	<path id="&lt;Path&gt;" class="s4" d="m213.6 269.6c1.2-0.4 2.2 0 2 0.9-0.2 0.9-0.9 0.7-2 0.7-1.1-0.1-2.3-0.2-2.3-0.2 0 0 1.1-1 2.3-1.4z"/>
	<path id="&lt;Path&gt;" class="s4" d="m187.1 379.3c0 0 1.2-4.7-1-4.7-2.2-0.1 1 4.7 1 4.7z"/>
	<path id="&lt;Path&gt;" class="s4" d="m187.3 379.8c0 0 4.2-2.4 2.8-4-1.4-1.6-2.8 4-2.8 4z"/>
	<path id="&lt;Path&gt;" class="s4" d="m186.5 372c-0.6-1.2-0.9-2.4 0.1-2.4 1.1 0 1.4 1.2 1.5 2.4 0 1.1-0.2 2.3-0.2 2.3 0 0-0.8-1.2-1.4-2.3z"/>
	<path id="&lt;Path&gt;" class="s4" d="m188.8 372.2c0.5-1.2 1.1-2.2 1.9-1.4 0.7 0.8 0.1 1.8-0.7 2.6-0.9 0.8-2 1.4-2 1.4 0 0 0.4-1.4 0.8-2.6z"/>
	<path id="&lt;Path&gt;" class="s4" d="m188.4 369.3c0 0 0.9-4.7-1.3-4.6-2.1 0 1.3 4.6 1.3 4.6z"/>
	<path id="&lt;Path&gt;" class="s4" d="m188.6 369.8c0 0 4.1-2.5 2.6-4.1-1.5-1.5-2.6 4.1-2.6 4.1z"/>
	<path id="&lt;Path&gt;" class="s4" d="m188.9 364.4c0 0 0.9-4.7-1.4-4.7-2 0.1 1.4 4.7 1.4 4.7z"/>
	<path id="&lt;Path&gt;" class="s4" d="m189.8 362.2c0.5-1.2 1-2.2 1.8-1.5 1.6 1.6-2.5 4.2-2.5 4.2 0 0 0.2-1.4 0.7-2.7z"/>
	<path id="&lt;Path&gt;" class="s4" d="m189.3 359.4c0 0 0.6-4.8-1.5-4.6-2.2 0.1 1.5 4.6 1.5 4.6z"/>
	<path id="&lt;Path&gt;" class="s4" d="m189.5 359.9c0 0 3.9-2.7 2.4-4.2-1.6-1.5-2.4 4.2-2.4 4.2z"/>
	<path id="&lt;Path&gt;" class="s4" d="m189.5 354.4c0 0 0.7-4.8-1.5-4.6-2.1 0.2 1.5 4.6 1.5 4.6z"/>
	<path id="&lt;Path&gt;" class="s4" d="m189.7 354.9c0 0 4-2.8 2.4-4.3-1.6-1.4-2.4 4.3-2.4 4.3z"/>
	<path id="&lt;Path&gt;" class="s4" d="m188.2 347.2c-0.7-1.1-1.1-2.3 0-2.4 1.1-0.1 1.5 1.1 1.6 2.2 0.1 1.2-0.1 2.4-0.1 2.4 0 0-0.9-1.1-1.5-2.2z"/>
	<path id="&lt;Path&gt;" class="s4" d="m190.6 347.2c0.3-1.2 0.9-2.3 1.7-1.6 1.7 1.4-2.3 4.3-2.3 4.3 0 0 0.2-1.5 0.6-2.7z"/>
	<path id="&lt;Path&gt;" class="s4" d="m189.9 344.4c0 0 0.5-4.8-1.6-4.6-2.2 0.2 1.6 4.6 1.6 4.6z"/>
	<path id="&lt;Path&gt;" class="s4" d="m190.1 344.9c0 0 3.9-2.9 2.3-4.3-1.6-1.4-2.3 4.3-2.3 4.3z"/>
	<path id="&lt;Path&gt;" class="s4" d="m190 339.4c0 0 0.5-4.8-1.6-4.6-2.2 0.2 1.6 4.6 1.6 4.6z"/>
	<path id="&lt;Path&gt;" class="s4" d="m190.2 339.8c0 0 3.9-2.8 2.3-4.2-1.6-1.4-2.3 4.2-2.3 4.2z"/>
	<path id="&lt;Path&gt;" class="s4" d="m190.1 334.4c0 0 0.5-4.8-1.7-4.6-2.1 0.2 1.7 4.6 1.7 4.6z"/>
	<path id="&lt;Path&gt;" class="s4" d="m190.3 334.8c0 0 3.9-2.8 2.2-4.2-1.6-1.5-2.2 4.2-2.2 4.2z"/>
	<path id="&lt;Path&gt;" class="s4" d="m190.1 329.3c0 0 0.6-4.7-1.6-4.5-2.2 0.2 1.6 4.5 1.6 4.5z"/>
	<path id="&lt;Path&gt;" class="s4" d="m190.4 329.8c0 0 3.8-2.8 2.2-4.2-1.6-1.5-2.2 4.2-2.2 4.2z"/>
	<path id="&lt;Path&gt;" class="s4" d="m190.2 324.3c0 0 0.5-4.7-1.6-4.5-2.2 0.2 1.6 4.5 1.6 4.5z"/>
	<path id="&lt;Path&gt;" class="s4" d="m190.5 324.8c0 0 3.8-2.8 2.2-4.2-1.6-1.5-2.2 4.2-2.2 4.2z"/>
	<path id="&lt;Path&gt;" class="s4" d="m190.3 319.3c0 0 0.6-4.7-1.6-4.5-2.2 0.2 1.6 4.5 1.6 4.5z"/>
	<path id="&lt;Path&gt;" class="s4" d="m190.5 319.8c0 0 3.9-2.8 2.3-4.2-1.6-1.5-2.3 4.2-2.3 4.2z"/>
	<path id="&lt;Path&gt;" class="s4" d="m190.4 314.3c0 0 0.6-4.7-1.5-4.5-2.2 0.1 1.5 4.5 1.5 4.5z"/>
	<path id="&lt;Path&gt;" class="s4" d="m190.7 314.8c0 0 3.8-2.8 2.3-4.2-1.6-1.5-2.3 4.2-2.3 4.2z"/>
	<path id="&lt;Path&gt;" class="s4" d="m189 307.1c-0.6-1.2-1-2.3 0.1-2.4 2.1-0.1 1.5 4.6 1.5 4.6 0 0-1-1.1-1.6-2.2z"/>
	<path id="&lt;Path&gt;" class="s4" d="m191.4 307.2c0.4-1.3 1-2.3 1.8-1.6 1.5 1.5-2.4 4.2-2.4 4.2 0 0 0.2-1.4 0.6-2.6z"/>
	<path id="&lt;Path&gt;" class="s4" d="m189.3 302c-0.6-1.1-1-2.3 0.1-2.3 1.1-0.1 1.4 1.1 1.5 2.3 0.1 1.1-0.1 2.3-0.1 2.3 0 0-0.9-1.1-1.5-2.3z"/>
	<path id="&lt;Path&gt;" class="s4" d="m191.6 302.2c0.5-1.3 1.1-2.3 1.9-1.5 1.5 1.4-2.5 4.1-2.5 4.1 0 0 0.2-1.4 0.6-2.6z"/>
	<path id="&lt;Path&gt;" class="s4" d="m189.6 297c-0.6-1.2-0.8-2.4 0.2-2.4 1.1 0 1.4 1.2 1.5 2.4 0 1.1-0.2 2.3-0.2 2.3 0 0-0.9-1.1-1.5-2.3z"/>
	<path id="&lt;Path&gt;" class="s4" d="m192 297.2c0.5-1.2 1.1-2.2 1.9-1.5 1.4 1.5-2.6 4.1-2.6 4.1 0 0 0.3-1.4 0.7-2.6z"/>
	<path id="&lt;Path&gt;" class="s4" d="m190.2 292c-0.6-1.2-0.8-2.5 0.3-2.4 1.1 0 1.3 1.2 1.3 2.4 0 1.2-0.2 2.3-0.2 2.3 0 0-0.9-1.1-1.4-2.3z"/>
	<path id="&lt;Path&gt;" class="s4" d="m192.5 292.2c0.5-1.2 1.2-2.1 2-1.3 0.7 0.7 0 1.7-0.9 2.5-0.8 0.8-1.8 1.4-1.8 1.4 0 0 0.3-1.4 0.7-2.6z"/>
	<path id="&lt;Path&gt;" class="s4" d="m190.9 286.9c-0.4-1.2-0.6-2.5 0.5-2.4 1 0.1 1.2 1.3 1.1 2.5 0 1.2-0.3 2.3-0.3 2.3 0 0-0.8-1.2-1.3-2.4z"/>
	<path id="&lt;Path&gt;" class="s4" d="m193.3 287.3c0.6-1.2 1.3-2.1 2-1.3 0.6 0.9-0.1 1.8-1 2.5-0.8 0.8-1.9 1.4-1.9 1.4 0 0 0.4-1.4 0.9-2.6z"/>
	<path id="&lt;Path&gt;" class="s4" d="m192 281.9c-0.4-1.3-0.4-2.6 0.6-2.4 1.1 0.2 1.2 1.4 1 2.6-0.1 0.6-0.2 1.2-0.3 1.6-0.1 0.4-0.2 0.7-0.2 0.7 0 0-0.7-1.3-1.1-2.5z"/>
	<path id="&lt;Path&gt;" class="s4" d="m194.3 282.4c0.7-1.1 1.5-1.9 2.1-1.1 0.6 0.9-0.2 1.7-1.1 2.4-0.9 0.7-2 1.2-2 1.2 0 0 0.4-1.4 1-2.5z"/>
	<path id="&lt;Path&gt;" class="s4" d="m194 278.7c-0.1-0.5-0.3-1.1-0.5-1.8-0.2-1.3-0.2-2.6 0.9-2.3 1 0.3 1 1.6 0.7 2.7-0.1 0.6-0.3 1.1-0.5 1.5-0.1 0.5-0.2 0.7-0.2 0.7 0 0-0.2-0.3-0.4-0.8z"/>
	<path id="&lt;Path&gt;" class="s4" d="m197.9 276.8c0.5 1-0.3 1.7-1.3 2.3-1 0.5-2.1 1-2.1 1-0.1-0.1 2.4-5.2 3.4-3.3z"/>
	<path id="&lt;Path&gt;" class="s4" d="m195.7 272.1c-0.2-1.4 0.3-2.7 1.2-2.2 1 0.5 0.7 1.7 0.3 2.8-0.4 1.1-1.1 2.1-1.1 2.1 0 0-0.3-1.3-0.4-2.7z"/>
	<path id="&lt;Path&gt;" class="s4" d="m197.8 273.2c0.8-1 1.9-1.4 2.2-0.5 0.3 0.9-0.5 1.5-1.6 2-1 0.4-2.2 0.7-2.2 0.7 0 0 0.7-1.3 1.6-2.2z"/>
	<path id="&lt;Path&gt;" class="s4" d="m200.5 269.1c1.1-0.7 2.1-1 2.3 0 0.2 1.1-0.8 1.4-2 1.6-1 0.2-2.2 0.3-2.2 0.3 0 0 0.8-1.2 1.9-1.9z"/>
	<path id="&lt;Path&gt;" class="s4" d="m172.1 370.3c-0.6-1.2-0.9-2.4 0.2-2.4 1.1 0 1.4 1.2 1.4 2.4 0.1 1.2-0.3 2.4-0.3 2.4 0 0-0.7-1.2-1.3-2.4z"/>
	<path id="&lt;Path&gt;" class="s4" d="m174.5 370.6c0.4-1.3 1.1-2.3 1.8-1.5 0.8 0.8 0.1 1.9-0.7 2.7-0.9 0.8-2 1.4-2 1.4 0 0 0.4-1.4 0.9-2.6z"/>
	<path id="&lt;Path&gt;" class="s4" d="m174 367.6c0 0 1-4.8-1.2-4.7-2.1 0 1.2 4.7 1.2 4.7z"/>
	<path id="&lt;Path&gt;" class="s4" d="m174.3 368.1c0 0 4.1-2.5 2.6-4.1-1.5-1.6-2.6 4.1-2.6 4.1z"/>
	<path id="&lt;Path&gt;" class="s4" d="m173.2 360.2c-0.6-1.1-1-2.3 0.1-2.3 1-0.1 1.4 1.1 1.5 2.3 0 1.2-0.2 2.4-0.2 2.4 0 0-0.9-1.2-1.4-2.4z"/>
	<path id="&lt;Path&gt;" class="s4" d="m175.5 360.4c0.5-1.3 1.1-2.3 1.9-1.6 0.8 0.8 0.1 1.9-0.7 2.8-0.9 0.8-1.9 1.5-1.9 1.5 0 0 0.3-1.5 0.7-2.7z"/>
	<path id="&lt;Path&gt;" class="s4" d="m175 357.5c0 0 0.7-4.8-1.5-4.7-2.1 0.1 1.5 4.7 1.5 4.7z"/>
	<path id="&lt;Path&gt;" class="s4" d="m175.2 358c0 0 4-2.8 2.4-4.3-1.6-1.5-2.4 4.3-2.4 4.3z"/>
	<path id="&lt;Path&gt;" class="s4" d="m175.2 352.4c0 0 0.7-4.8-1.4-4.7-2.2 0.2 1.4 4.7 1.4 4.7z"/>
	<path id="&lt;Path&gt;" class="s4" d="m175.5 352.9c0 0 3.9-2.8 2.4-4.3-1.6-1.5-2.4 4.3-2.4 4.3z"/>
	<path id="&lt;Path&gt;" class="s4" d="m173.9 345c-0.6-1.1-1.1-2.3 0-2.4 1.1 0 1.5 1.1 1.6 2.3 0.2 1.2 0 2.4 0 2.4 0 0-0.9-1.1-1.6-2.3z"/>
	<path id="&lt;Path&gt;" class="s4" d="m176.3 345.1c0.4-1.3 0.9-2.4 1.7-1.7 0.8 0.8 0.3 1.8-0.5 2.8-0.8 0.9-1.8 1.6-1.8 1.6 0 0 0.3-1.5 0.6-2.7z"/>
	<path id="&lt;Path&gt;" class="s4" d="m175.6 342.2c0 0 0.6-4.8-1.6-4.6-2.1 0.2 1.6 4.6 1.6 4.6z"/>
	<path id="&lt;Path&gt;" class="s4" d="m175.9 342.7c0 0 3.9-2.9 2.2-4.4-1.6-1.4-2.2 4.4-2.2 4.4z"/>
	<path id="&lt;Path&gt;" class="s4" d="m175.7 337.1c0 0 0.5-4.9-1.6-4.6-2.2 0.2 1.6 4.6 1.6 4.6z"/>
	<path id="&lt;Path&gt;" class="s4" d="m176 337.6c0 0 3.8-2.9 2.2-4.4-1.6-1.4-2.2 4.4-2.2 4.4z"/>
	<path id="&lt;Path&gt;" class="s4" d="m175.8 332c0 0 0.5-4.9-1.6-4.7-2.2 0.3 1.6 4.7 1.6 4.7z"/>
	<path id="&lt;Path&gt;" class="s4" d="m176 332.5c0 0 3.9-2.9 2.3-4.4-1.7-1.4-2.3 4.4-2.3 4.4z"/>
	<path id="&lt;Path&gt;" class="s4" d="m175.9 326.9c0 0 0.5-4.9-1.7-4.6-2.1 0.1 1.7 4.6 1.7 4.6z"/>
	<path id="&lt;Path&gt;" class="s4" d="m176.1 327.4c0 0 3.9-3 2.2-4.4-1.6-1.4-2.2 4.4-2.2 4.4z"/>
	<path id="&lt;Path&gt;" class="s4" d="m175.9 321.8c0 0 0.6-4.9-1.6-4.7-2.2 0.2 1.6 4.7 1.6 4.7z"/>
	<path id="&lt;Path&gt;" class="s4" d="m176.2 322.3c0 0 3.8-3 2.2-4.4-1.6-1.5-2.2 4.4-2.2 4.4z"/>
	<path id="&lt;Path&gt;" class="s4" d="m176 316.7c0 0 0.6-4.9-1.6-4.7-2.2 0.2 1.6 4.7 1.6 4.7z"/>
	<path id="&lt;Path&gt;" class="s4" d="m176.3 317.2c0 0 3.8-2.9 2.2-4.4-1.6-1.4-2.2 4.4-2.2 4.4z"/>
	<path id="&lt;Path&gt;" class="s4" d="m176.1 311.6c0 0 0.6-4.9-1.5-4.7-2.2 0.1 1.5 4.7 1.5 4.7z"/>
	<path id="&lt;Path&gt;" class="s4" d="m176.4 312c0 0 3.9-2.8 2.3-4.2-1.6-1.5-2.3 4.2-2.3 4.2z"/>
	<path id="&lt;Path&gt;" class="s4" d="m176.3 306.5c0 0 0.7-4.9-1.4-4.8-2.2 0.2 1.4 4.8 1.4 4.8z"/>
	<path id="&lt;Path&gt;" class="s4" d="m176.5 306.9c0 0 4-2.7 2.4-4.2-1.5-1.5-2.4 4.2-2.4 4.2z"/>
	<path id="&lt;Path&gt;" class="s4" d="m175.1 299c-0.6-1.2-0.9-2.4 0.2-2.4 2.1 0 1.3 4.7 1.3 4.7 0 0-0.9-1.1-1.5-2.3z"/>
	<path id="&lt;Path&gt;" class="s4" d="m176.8 301.9c0 0 4-2.7 2.5-4.2-1.5-1.6-2.5 4.2-2.5 4.2z"/>
	<path id="&lt;Path&gt;" class="s4" d="m175.6 293.9c-0.6-1.3-0.9-2.5 0.2-2.5 2.2 0.1 1.2 4.9 1.2 4.9 0 0-0.8-1.2-1.4-2.4z"/>
	<path id="&lt;Path&gt;" class="s4" d="m179.8 292.7c0.8 0.8 0.1 1.8-0.7 2.6-0.9 0.8-1.9 1.5-1.9 1.5 0 0 1.2-5.7 2.6-4.1z"/>
	<path id="&lt;Path&gt;" class="s4" d="m176.3 288.7c-0.5-1.2-0.7-2.5 0.4-2.4 2.1 0.2 0.9 4.9 0.9 4.9 0 0-0.8-1.2-1.3-2.5z"/>
	<path id="&lt;Path&gt;" class="s4" d="m178.7 289.1c0.5-1.2 1.3-2.2 1.9-1.3 0.7 0.8 0 1.7-0.9 2.5-0.9 0.8-1.9 1.4-1.9 1.4 0 0 0.3-1.4 0.9-2.6z"/>
	<path id="&lt;Path&gt;" class="s4" d="m177.3 283.6c-0.4-1.3-0.4-2.6 0.7-2.4 1 0.1 1.1 1.4 0.9 2.6-0.1 1.2-0.4 2.3-0.4 2.3 0 0-0.7-1.2-1.2-2.5z"/>
	<path id="&lt;Path&gt;" class="s4" d="m179.7 284.1c0.6-1.1 1.4-2 2-1.1 0.6 0.8-0.2 1.7-1.1 2.4-0.9 0.7-2 1.3-2 1.3 0 0 0.5-1.4 1.1-2.6z"/>
	<path id="&lt;Path&gt;" class="s4" d="m178.9 278.5c-0.3-1.4-0.2-2.7 0.8-2.4 2.1 0.7-0.1 5 0 5.1 0 0-0.6-1.4-0.8-2.7z"/>
	<path id="&lt;Path&gt;" class="s4" d="m183.3 278.4c0.5 0.9-0.4 1.7-1.4 2.3-0.9 0.6-2.1 1-2.1 1-0.1-0.1 2.5-5.3 3.5-3.3z"/>
	<path id="&lt;Path&gt;" class="s4" d="m181.1 273.6c-0.1-1.4 0.3-2.7 1.3-2.2 1 0.5 0.5 1.6 0.2 2.8-0.4 1.1-1.1 2.1-1.1 2.1 0 0-0.4-1.3-0.4-2.7z"/>
	<path id="&lt;Path&gt;" class="s4" d="m182 276.2c0.3-0.5 0.7-1 1.2-1.5 0.8-1 1.9-1.5 2.2-0.5 0.3 0.9-0.5 1.6-1.6 2-1.1 0.4-2.3 0.7-2.3 0.7 0 0 0.2-0.3 0.5-0.7z"/>
	<path id="&lt;Path&gt;" class="s4" d="m184 271c0-0.6 0-1.3 0.2-2 0.2-1.3 0.9-2.6 1.7-1.9 1.6 1.4-2 4.6-1.8 4.8 0 0-0.1-0.4-0.1-0.9z"/>
	<path id="&lt;Path&gt;" class="s4" d="m184.6 271.8c0.3-0.4 0.8-0.9 1.4-1.2 1.1-0.8 2.1-1.1 2.3 0 0.2 1-0.9 1.3-2 1.5-1.1 0.3-2.3 0.3-2.3 0.3 0 0 0.2-0.2 0.6-0.6z"/>
	<path id="&lt;Path&gt;" class="s6" d="m272.5 313c0 0 33.4-5.7 41.4-13.8 7.8-7.8 11.5 3.6 4.1 11.6-7.4 8-49.4 16.2-45.5 2.2z"/>
	<path id="&lt;Path&gt;" class="s6" d="m175.1 328.3c0 0 0.5 33.9 7.3 43.1 6.5 8.9-5.4 10.8-12.1 2.3-6.7-8.6-8.4-51.4 4.8-45.4z"/>
	<path id="&lt;Path&gt;" class="s7" d="m233.3 224.9c-5.5 2.6-36-1.9-35.3-9.2 0.6-7.3 35.6-10.6 35.6-10.6 6.4 3 5.2 17.1-0.3 19.8z"/>
	<path id="&lt;Path&gt;" class="s8" d="m233.3 224.9c-5.2 2.4-32.4-1.4-35.1-7.9 14.9 3.2 28.6-0.3 36.6-11 5 4.1 3.6 16.4-1.5 18.9z"/>
	<path id="&lt;Path&gt;" class="s9" d="m201.4 202c-0.1 2.3-1.2 4.3-2.9 5.5-1.1 0.8-2.4 1.3-3.9 1.2-3.6-0.1-6.4-3.4-6.2-7.2 0-1.1 0.3-2.1 0.7-2.9 1.1-2.4 3.5-4 6.1-3.9 3.6 0.2 6.4 3.4 6.2 7.3z"/>
	<path id="&lt;Path&gt;" class="s9" d="m269 219.1c-0.1 2.4-1.2 4.4-2.9 5.6-1.1 0.8-2.5 1.2-3.9 1.2-3.6-0.2-6.4-3.4-6.3-7.3 0.1-1.2 0.4-2.3 1-3.3 1.2-2.1 3.4-3.5 5.8-3.4 3.6 0.1 6.4 3.4 6.3 7.2z"/>
	<path id="&lt;Path&gt;" class="s9" d="m231.4 239.7c-1.6-0.3-3-1.2-4.1-2.5-1.4-1.6-2.1-3.6-2-5.8 0-0.6 0.5-1 1.1-1 0.6 0 1.1 0.5 1.1 1.1-0.1 1.6 0.4 3.1 1.4 4.3 1 1.1 2.3 1.8 3.8 1.9 1.1 0 2.2-0.3 3.2-1.1 1.5-1 2.4-2.8 2.4-4.6 0.1-0.6 0.6-1.1 1.2-1.1 0.6 0.1 1 0.6 1 1.2-0.1 2.5-1.3 4.9-3.3 6.3-1.4 1-3 1.5-4.6 1.4q-0.6 0-1.2-0.1z"/>
	<path id="&lt;Path&gt;" class="s10" d="m184.7 163.8c0 0-14.3 37.9-10.8 51.2 3.3 12.7-12.9 11.2-16.6-1.3-3.8-12.4 15.3-62.4 27.4-49.9z"/>
	<path id="&lt;Path&gt;" class="s0" d="m162.3 157.8c0 0 28.1-51.3 93.6-47 65.6 4.4 85.6 55.5 91.9 90.9l-16.3 7.2c0 0-11-78.4-78-85.1-50.4-6.3-74.1 20.2-81.6 31.2-7.5 11-5 7-5 7l-6.5-4.2"/>
	<path id="&lt;Path&gt;" class="s1" d="m323.4 165.6c9.4 19.3 13.4 32.6 15.1 40.2l-7 3.1c0 0-11-78.4-78-85.1-50.4-6.3-74.1 20.2-81.6 31.2-7.5 11-5 7-5 7l-1.9-1.2c7-12.9 20.9-29.7 48.5-38.6 49.5-16 94.3 11 109.9 43.4z"/>
	<path id="&lt;Path&gt;" class="s0" d="m357.7 235.1c0 0 8 3.9 5.1 13.6-3 9.8-17.3 1.1-17.3 1.1 0 0 10.1 6 2.4 13.6-5.2 5.1-12.8 0.3-17.1-3.4q-0.3 0.5-0.8 0.9 0 0.1-0.1 0.1c0 1.6-1.2 3.3-5.9 4.3-4.3 0.9-6.7-1.8-8-5.3-1.9-5.3-1.4-12.3-1.4-12.3 0 0-6.3 8-11.5 4.8-5.3-3.1-1.1-15.3-1.9-15.6 0 0-2.9 7-8.8 0.7-5.8-6.4 5.9-16.8 5.9-16.8 0 0-7.6-7.4-5.1-14 2.5-6.7 16.3-1.7 16.3-1.7 0 0-1-3.9 0.7-7.7 0.9-2.1 2.6-4.1 5.7-5.4 1.9-0.8 3.6-0.9 5-0.4q0.8-0.1 1.7-0.2c5.6-0.2 7.9 2.4 8.8 5.2 1.8-1.4 4.6-2.5 9.2-2.7 11.2-0.5 9.1 10.7 9.1 10.7 0 0 4.8-2.4 10.5 3 5.7 5.4-1.4 7.4-1.4 7.4 0 0 13.7 5.9 13.5 13.7-0.3 7.8-14.6 6.4-14.6 6.4z"/>
	<path id="&lt;Path&gt;" class="s1" d="m357.7 235.1c0 0 8 3.9 5.1 13.6-3 9.8-17.3 1.1-17.3 1.1 0 0 10.1 6 2.4 13.6-5.2 5.1-12.8 0.3-17.1-3.4q-0.3 0.5-0.8 0.9 0 0.1-0.1 0.1c0 1.6-1.2 3.3-5.9 4.3-4.3 0.9-6.7-1.8-8-5.3-1.9-5.3-1.4-12.3-1.4-12.3 0 0-6.3 8-11.5 4.8-2.5-1.4-2.9-4.9-2.7-8.2 25.8 2.5 52.1-2.8 61.4-27.8 4 2.2 10.6 6.7 10.5 12.2-0.3 7.8-14.6 6.4-14.6 6.4z"/>
</svg>