<svg version="1.2" xmlns="http://www.w3.org/2000/svg" viewBox="0 0 500 500" width="500" height="500">
	<title>Proyecto nuevo</title>
	<style>
		.s0 { fill: #7c5543 } 
		.s1 { fill: #edcbc5 } 
		.s2 { fill: #0d0a23 } 
		.s3 { fill: #996855 } 
		.s4 { opacity: .2;fill: #0d0a23 } 
		.s5 { fill: #c02434 } 
		.s6 { opacity: .2;fill: #fdfcfc } 
		.s7 { fill: #1b1631 } 
		.s8 { fill: #1a1b1b } 
	</style>
	<path id="&lt;Path&gt;" class="s0" d="m178.4 241.3c0 0-61.2-14.1-50.4-45.7 10.3-30.1 50.3 4.2 63.7 22.8z"/>
	<path id="&lt;Path&gt;" class="s1" d="m185.9 233.2c0 0-47.9-2.7-40-25.8 7.5-21.9 32.7 6.3 42.5 19.9z"/>
	<path id="&lt;Path&gt;" class="s0" d="m303.5 205c8.6-21.3 39.3-64.1 56.4-37.3 18 28.1-38.1 56.3-38.1 56.3z"/>
	<path id="&lt;Path&gt;" class="s1" d="m308.8 212.8c6.3-15.5 24.1-48.9 36.6-29.4 13.1 20.5-32.7 34.5-32.7 34.5z"/>
	<path id="&lt;Path&gt;" class="s2" d="m223.9 229.8c-0.8 0.5-1.7 0.8-2.6 0.9-2.4 0.3-4.8-0.8-6.2-3l-15.1-24-44.8-24.2c-3.1-1.7-4.3-5.6-2.6-8.7 1.7-3 5.5-4.2 8.6-2.5l25 13.5-23.5-37.4c-1.8-3-1-6.9 2-8.8 3-1.9 6.9-1 8.8 2l17.4 27.7 4.5-27.2c0.6-3.5 3.8-5.8 7.3-5.3 3.5 0.6 5.8 3.9 5.2 7.3l-6.8 41.5 24.8 39.4c1.8 3 0.9 6.9-2 8.7z"/>
	<path id="&lt;Path&gt;" class="s2" d="m270.3 210.3l14.6-44.1-16.4-38.7c-1.4-3.2 0.1-6.9 3.3-8.3 3.3-1.4 7 0.1 8.4 3.3l10.8 25.5 10.3-31.1c1.2-3.3 4.8-5.1 8.1-4 3.3 1.1 5.1 4.7 4 8l-13.9 42 21.1-19.1c2.6-2.4 6.6-2.2 8.9 0.4 2.4 2.6 2.2 6.6-0.4 9l-37.8 34.2-9 26.9c-0.8 2.5-2.9 4.1-5.3 4.3-0.9 0.2-1.8 0.1-2.7-0.2-3.4-1.1-5.2-4.7-4-8.1z"/>
	<path id="&lt;Path&gt;" class="s0" d="m194.1 345.6c-30.6-19.5-28.4-64.1-21.2-96.6 11-50 66-58.9 66-58.9 40-9.4 76.8-0.6 96.9 33.7 12.9 22 30.7 60.7 12.4 90.1-11.4-23.6-46.4-36.9-84.1-30.2-37.7 6.8-68.6 35.9-70 61.9z"/>
	<path id="&lt;Path&gt;" class="s3" d="m194.1 345.6c1.4-26 32.3-55.1 70-61.9 37.7-6.7 72.7 6.6 84.2 30.2-10.3 16.6-31.9 30.2-72 36.5-37.1 5.8-65.6 5.8-82.2-4.8z"/>
	<path id="&lt;Path&gt;" class="s4" d="m348.3 313.9c-10.3 16.6-31.9 30.2-72 36.5-26.4 4.1-48.5 5.3-65 1.8 62.2-7.3 123.9-32.9 139.4-96.6 6.4 18.9 8.7 40.3-2.5 58.3z"/>
	<path id="&lt;Path&gt;" class="s5" d="m287.6 285.3c1.7 9.1-7.4 18.6-20.3 21-13 2.4-24.9-3-26.6-12.2-1.7-9.2 7.4-18.6 20.3-21 13-2.5 24.9 3 26.6 12.2z"/>
	<path id="&lt;Path&gt;" class="s6" d="m245.9 297.7c0 0-5.7-10 2.3-16.7 8.1-6.7 14.2-5 14.7-3 0.5 2-3.7 4.5-7.2 6-3.5 1.5-4.7 17.2-9.8 13.7z"/>
	<path id="&lt;Path&gt;" class="s7" d="m267.3 306.3c-8.5 1.6-16.4-0.2-21.4-4.1 4.6 1.9 10.5 2.5 16.5 1.3 13-2.4 22.1-11.8 20.3-21-0.6-3.2-2.4-5.9-5.1-8.1 5.3 2.2 9.1 6 10 10.9 1.7 9.1-7.4 18.6-20.3 21z"/>
	<path id="&lt;Path&gt;" class="s8" d="m226.8 289c0.4 3.1-2 6-5.2 6.4-3.3 0.4-6.3-1.9-6.6-5-0.4-3.1 1.9-6 5.2-6.3 3.3-0.4 6.2 1.8 6.6 4.9z"/>
	<path id="&lt;Path&gt;" class="s8" d="m311.5 269.2c0.3 3.1-2 6-5.3 6.4-3.3 0.4-6.2-1.8-6.6-5-0.4-3.1 2-5.9 5.3-6.3 3.2-0.4 6.2 1.8 6.6 4.9z"/>
	<path id="&lt;Path&gt;" class="s8" d="m280.6 319.1c-1 0.9-2.3 1.4-3.6 1.6-1.8 0.1-3.5-0.4-4.9-1.5-0.3-0.2-0.4-0.7-0.1-1 0.2-0.3 0.7-0.4 1-0.1 1.1 0.8 2.5 1.2 3.8 1.1 1.4-0.2 2.6-0.9 3.5-1.9 0.9-1.1 1.3-2.5 1.1-3.8-0.1-1.4-0.8-2.6-1.9-3.5-0.3-0.3-0.3-0.7-0.1-1.1 0.3-0.3 0.7-0.3 1.1-0.1 1.3 1.2 2.2 2.7 2.4 4.5 0.2 1.8-0.3 3.5-1.4 4.9q-0.4 0.5-0.9 0.9z"/>
</svg>