<svg version="1.2" xmlns="http://www.w3.org/2000/svg" viewBox="0 0 500 500" width="500" height="500">
	<title>Proyecto nuevo</title>
	<style>
		.s0 { fill: #dfaba8 } 
		.s1 { fill: #e8bab5 } 
		.s2 { fill: #c02434 } 
		.s3 { fill: #edcbc5 } 
		.s4 { fill: #ffffff } 
		.s5 { opacity: .1;fill: #531942 } 
		.s6 { fill: #1a1b1b } 
		.s7 { fill: #ebb2ac } 
		.s8 { opacity: .2;fill: #fdfcfc } 
	</style>
	<path id="&lt;Path&gt;" class="s0" d="m335 253.2c-1.2 7.6-8.3 12.8-15.8 11.6-7.6-1.2-12.8-8.3-11.6-15.8 1.2-7.6 8.3-12.8 15.8-11.6 7.6 1.2 12.8 8.3 11.6 15.8z"/>
	<path id="&lt;Path&gt;" class="s1" d="m330.9 256.2c-0.9 5.6-6.1 9.5-11.7 8.6-5.7-0.9-9.5-6.1-8.6-11.8 0.9-5.6 6.1-9.4 11.7-8.5 5.6 0.8 9.5 6.1 8.6 11.7z"/>
	<path id="&lt;Path&gt;" class="s0" d="m130.2 249.4c0-7.7 6.1-14 13.7-14 7.7-0.1 14 6 14 13.7 0.1 7.6-6 13.9-13.7 14-7.6 0-13.9-6.1-14-13.7z"/>
	<path id="&lt;Path&gt;" class="s1" d="m137.4 249.3c-0.1-5.7 4.5-10.3 10.1-10.4 5.7-0.1 10.4 4.5 10.4 10.2 0.1 5.7-4.5 10.3-10.2 10.4-5.6 0-10.3-4.5-10.3-10.2z"/>
	<path id="&lt;Path&gt;" class="s2" d="m153.2 228.4c0 0 5.9-46.7 30.8-72.4 24.9-25.7 81.1-54.6 137.8-19.4 0 0 6.2 6.1 0.4 15.9-13 22.3-15.7 40.7-7.6 63.1 8.1 22.5-161.4 12.8-161.4 12.8z"/>
	<path id="&lt;Path&gt;" class="s3" d="m312.6 226.3c0 0 1.7 12.9 0 30-1.6 17.1-8.4 39.1-74 43.1-65.5 4-81.3-24.2-81.3-24.2l-4.5-45.5c61.2-41.4 159.8-3.4 159.8-3.4z"/>
	<path id="&lt;Path&gt;" class="s4" d="m232.7 184.4c34.5-5.8 55.6 15.7 55.6 15.7 16.7-2.4 30 6.8 32.7 10.8 2.6 4 8.6 24.4-4.9 27.8-13.4 3.4-48.9-14-48.9-14-41 8.4-65.3-6.8-65.3-6.8-21.8 17.1-37.3 16.8-42.3 19.6-5 2.8-11.7-1.8-14.4-10.9-2.6-9.1 6.1-20.9 20-27.5 13.9-6.5 30.8-3 30.8-3 0 0 2.3-5.8 36.7-11.7z"/>
	<path id="&lt;Path&gt;" class="s5" d="m212.5 222.5c28.6-3.8 56.8-10.9 81.8-22.8 13.8 0.2 24.3 7.7 26.7 11.2 2.6 4 8.6 24.4-4.9 27.8-13.4 3.4-48.9-14-48.9-14-25 5.1-43.8 1.5-54.7-2.2z"/>
	<path id="&lt;Path&gt;" class="s5" d="m192.1 224.7c-16.6 10.2-28.3 10.4-32.5 12.8-5 2.8-11.7-1.8-14.4-10.9q0-0.2-0.1-0.4c15.3 0.2 31.1-0.2 47-1.5z"/>
	<path id="&lt;Path&gt;" class="s4" d="m168.4 249.3c0 0 12.5-19.6 20.5-21.7 7.9-2 4.5 3.3 4.5 3.3 0 0 7.3-5.5 10.2 0.8 0.7 3.5-3.3 5.2-3.3 5.2 0 0 4.6 0 1.6 5.5-3 5.5-22.7 0.3-33.5 6.9z"/>
	<path id="&lt;Path&gt;" class="s4" d="m267 246.1c-3.2-5.4 1.3-5.5 1.3-5.5 0 0-4-1.6-3.5-5.1 2.6-6.4 10.2-1.2 10.2-1.2 0 0-3.6-5.2 4.4-3.5 8 1.7 21.3 20.8 21.3 20.8-11.1-6.1-30.5-0.2-33.7-5.5z"/>
	<path id="&lt;Path&gt;" class="s4" d="m159.1 241.3c1.2 7.9 0.7 34.6 18.8 42.4 6.5 2.8 19.6-1.4 30.5-9.9 20.3-15.9 38.5-4.6 49.8 1.1 11.3 5.6 17.2 18.5 33.5 9.2 16.3-9.3 17.6-45.1 17.6-45.1l4.4 1.4c0 0 0-1.3 3.5 28.2 3.5 29.4 22.7 45.4 3.9 67.8-11.3 13.6-26.4 5.8-26.4 5.8 0 0 8.8 19-9.6 26.5-11 4.5-20.9-3.7-20.9-3.7 0 0 0.2 24.3-21.3 23.3-26.8-1.2-24.1-19.7-24.1-19.7 0 0-6 8.1-21.4 5.7-21.8-6.1-19.2-26.4-19.2-26.4 0 0-9.1 5.7-24.7-2.9-26.2-16.5-12.5-51.2-5.3-68.5 7.2-17.2 6.1-41 6.1-41 3.7-5.5 3.7-2.1 4.8 5.8z"/>
	<path id="&lt;Path&gt;" class="s5" d="m321.3 286.5c6.1 19 14.4 32.5-0.2 49.9-11.3 13.6-26.4 5.8-26.4 5.8 0 0 8.8 19-9.6 26.5-11 4.5-20.9-3.7-20.9-3.7 0 0 0.2 24.3-21.3 23.3-26.8-1.2-24.1-19.7-24.1-19.7 0 0-6 8.1-21.4 5.7-21.8-6.1-19.2-26.4-19.2-26.4 0 0-9.1 5.7-24.7-2.9-7.1-4.4-11.2-10.2-13.4-16.6 46.8 21.4 101.4 12.6 148-10.7 14.8-6.7 25-17.9 33.2-31.2z"/>
	<path id="&lt;Compound Path&gt;" fill-rule="evenodd" class="s6" d="m280.9 305.5c-21.4-1.1-37.9-19.1-37.5-40.4-2.4-1.7-5.8-2.9-9.7-3.1-3.6-0.2-6.9 0.5-9.4 1.8-1.8 21.3-20.3 37.5-41.8 36.4-21.9-1.2-38.7-20-37.5-41.9 1.2-21.9 19.9-38.7 41.8-37.5 20.7 1.1 36.8 17.9 37.6 38.1 2.5-1.3 5.9-2 9.6-1.8 3.9 0.2 7.4 1.4 9.8 3.2 2.8-20.2 20.7-35.2 41.5-34.1 21.9 1.2 38.7 19.9 37.5 41.8-1.2 22-19.9 38.8-41.9 37.5zm-61.6-43.1c1-19.1-13.6-35.5-32.7-36.5-19.1-1.1-35.5 13.6-36.5 32.7-1.1 19.1 13.6 35.4 32.7 36.5 19.1 1 35.4-13.6 36.5-32.7zm98.4 5.4c1.1-19.1-13.6-35.5-32.7-36.5-19.1-1.1-35.4 13.6-36.5 32.7-1 19.1 13.6 35.4 32.7 36.5 19.1 1 35.5-13.6 36.5-32.7z"/>
	<path id="&lt;Path&gt;" class="s1" d="m246.8 266c-8.2 5.6-18.4 7.5-28.4 3.7q-0.2-0.7-0.2-1.5c0-5.1 6.5-9.3 14.5-9.3 6.8 0 12.5 3 14.1 7.1z"/>
	<path id="&lt;Path&gt;" class="s0" d="m246.8 266q0.4 1 0.4 2.2c0 5-6.5 9.2-14.5 9.2-7.2 0-13.1-3.3-14.3-7.7 10 3.8 20.2 1.9 28.4-3.7z"/>
	<path id="&lt;Path&gt;" class="s6" d="m202.6 261.3c-1 3-4.4 4.6-7.6 3.6-3.1-1.1-4.9-4.4-3.9-7.4 1-3 4.4-4.6 7.6-3.6 3.1 1.1 4.9 4.4 3.9 7.4z"/>
	<path id="&lt;Path&gt;" class="s6" d="m270.9 264.3c-1 3.1-4.4 4.7-7.5 3.6-3.2-1-5-4.3-4-7.4 1.1-3 4.4-4.6 7.6-3.5 3.2 1 4.9 4.3 3.9 7.3z"/>
	<path id="&lt;Path&gt;" class="s6" d="m235.4 294.6c-1.3 0.4-2.7 0.3-4-0.1-1.7-0.6-3.1-1.8-3.9-3.4-0.2-0.4 0-0.9 0.4-1.1 0.3-0.1 0.8 0 1 0.4 0.6 1.3 1.6 2.2 3 2.7 1.3 0.4 2.7 0.3 4-0.3 1.2-0.6 2.2-1.7 2.6-3 0.5-1.3 0.4-2.7-0.2-4-0.2-0.4 0-0.8 0.3-1 0.4-0.2 0.9 0 1.1 0.3 0.7 1.7 0.9 3.5 0.3 5.2-0.6 1.7-1.8 3.1-3.5 3.9q-0.5 0.2-1.1 0.4z"/>
	<path id="&lt;Path&gt;" class="s4" d="m357.7 153.5c0 0 5 4.8 0.4 11.3-4.5 6.5-13-3.5-13-3.5 0 0 6 7-1.5 10.7-5.2 2.6-9.6-2.9-11.9-6.7q-0.4 0.3-0.8 0.5-0.1 0-0.1 0c-0.4 1.3-1.8 2.2-5.4 1.8-3.5-0.4-4.6-3-4.7-5.9-0.1-4.4 2-9.5 2-9.5 0 0-6.7 4.4-9.8 0.8-3.1-3.6 3-11.6 2.5-12.1 0 0-3.8 4.5-6.7-1.6-2.8-6.2 8.5-11.1 8.5-11.1 0 0-3.8-7.2-0.3-11.6 3.5-4.3 12.4 2.8 12.4 2.8 0 0 0.3-3.2 2.4-5.6 1.2-1.3 3-2.3 5.6-2.6 1.6-0.1 2.9 0.3 3.9 1q0.6 0.1 1.2 0.3c4.3 1.2 5.3 3.7 5.3 5.9 1.6-0.5 4-0.7 7.4 0.3 8.5 2.4 4.1 10.2 4.1 10.2 0 0 4.2-0.6 7.1 4.8 2.9 5.4-2.8 5.1-2.8 5.1 0 0 8.7 7.7 6.6 13.5-2.1 5.7-12.4 1.2-12.4 1.2z"/>
	<path id="&lt;Path&gt;" class="s4" d="m317.3 156c0 0 0.2 0.4 0.5 0.9-0.3-0.5-0.5-0.9-0.5-0.9z"/>
	<path id="&lt;Path&gt;" class="s7" d="m207.3 279.4c0 5-7.7 9.1-17.1 9.1-9.4 0-17-4.1-17-9.1 0-5 7.6-9 17-9 9.4 0 17.1 4 17.1 9z"/>
	<path id="&lt;Path&gt;" class="s7" d="m293.3 282c0 5-7.6 9-17 9-9.4 0-17-4-17-9 0-5 7.6-9.1 17-9.1 9.4 0 17 4.1 17 9.1z"/>
	<path id="&lt;Path&gt;" class="s8" d="m205.5 147.1c17.7-11.7 25.3 1.9 13.4 6.8-12.3 5.2-38.5 36.2-38.5 36.2-14.9-1.1 14.4-35.9 25.1-43z"/>
</svg>